<?xml version="1.0" encoding="utf-8"?>
<!-- Generator: Adobe Illustrator 17.0.0, SVG Export Plug-In . SVG Version: 6.00 Build 0)  -->
<!DOCTYPE svg PUBLIC "-//W3C//DTD SVG 1.1//EN" "http://www.w3.org/Graphics/SVG/1.1/DTD/svg11.dtd">
<svg version="1.1" id="Layer_1" xmlns="http://www.w3.org/2000/svg" xmlns:xlink="http://www.w3.org/1999/xlink" x="0px" y="0px"
	 width="50.5px" height="50.5px" viewBox="0 0 50.5 50.5" enable-background="new 0 0 50.5 50.5" xml:space="preserve">
<g opacity="0.8">
	<circle fill="none" stroke="#BE9857" stroke-width="0.5" stroke-miterlimit="10" cx="25.25" cy="25.25" r="25"/>
	<g>
		<path fill="#FFFFFF" d="M25.25,44.75c-10.752,0-19.5-8.748-19.5-19.5s8.748-19.5,19.5-19.5c10.752,0,19.5,8.748,19.5,19.5
			S36.002,44.75,25.25,44.75z"/>
		<path fill="#BE9857" d="M25.25,7.25c9.925,0,18,8.075,18,18s-8.075,18-18,18s-18-8.075-18-18S15.325,7.25,25.25,7.25 M25.25,4.25
			c-11.598,0-21,9.402-21,21c0,11.598,9.402,21,21,21c11.598,0,21-9.402,21-21C46.25,13.652,36.848,4.25,25.25,4.25L25.25,4.25z"/>
	</g>
</g>
<path opacity="0.8" fill="#21282F" d="M29.249,15.254l-2.594-0.004c-2.914,0-4.797,1.932-4.797,4.922v2.269h-2.608
	c-0.225,0-0.408,0.183-0.408,0.408v3.288c0,0.225,0.183,0.408,0.408,0.408h2.608v8.297c0,0.225,0.182,0.408,0.408,0.408h3.402
	c0.225,0,0.408-0.183,0.408-0.408v-8.297h3.049c0.225,0,0.408-0.182,0.408-0.408l0.001-3.288c0-0.108-0.043-0.212-0.119-0.288
	c-0.076-0.077-0.18-0.12-0.289-0.12h-3.05v-1.924c0-0.925,0.22-1.394,1.425-1.394l1.747-0.001c0.225,0,0.408-0.183,0.408-0.408
	v-3.053C29.657,15.437,29.474,15.255,29.249,15.254z"/>
</svg>
