<?xml version="1.0" encoding="utf-8"?>
<!-- Generator: Adobe Illustrator 17.0.0, SVG Export Plug-In . SVG Version: 6.00 Build 0)  -->
<!DOCTYPE svg PUBLIC "-//W3C//DTD SVG 1.1//EN" "http://www.w3.org/Graphics/SVG/1.1/DTD/svg11.dtd">
<svg version="1.1" id="Layer_1" xmlns="http://www.w3.org/2000/svg" xmlns:xlink="http://www.w3.org/1999/xlink" x="0px" y="0px"
	 width="50.5px" height="50.5px" viewBox="0 0 50.5 50.5" enable-background="new 0 0 50.5 50.5" xml:space="preserve">
<circle fill="none" stroke="#BE9857" stroke-width="0.5" stroke-miterlimit="10" cx="25.25" cy="25.25" r="25"/>
<g>
	<path fill="#FFFFFF" d="M25.25,44.75c-10.752,0-19.5-8.748-19.5-19.5s8.748-19.5,19.5-19.5s19.5,8.748,19.5,19.5
		S36.003,44.75,25.25,44.75z"/>
	<path fill="#BE9857" d="M25.25,7.25c9.925,0,18,8.075,18,18s-8.075,18-18,18s-18-8.075-18-18S15.325,7.25,25.25,7.25 M25.25,4.25
		c-11.598,0-21,9.402-21,21c0,11.598,9.402,21,21,21c11.598,0,21-9.402,21-21C46.25,13.652,36.848,4.25,25.25,4.25L25.25,4.25z"/>
</g>
<path opacity="0.8" fill="#21282F" d="M37.494,18.542c-0.906,0.402-1.879,0.674-2.9,0.795c1.043-0.625,1.842-1.616,2.22-2.793
	c-0.979,0.578-2.059,0.999-3.209,1.226c-0.922-0.983-2.232-1.596-3.686-1.596c-2.789,0-5.051,2.262-5.051,5.05
	c0,0.395,0.045,0.782,0.131,1.151c-4.197-0.211-7.919-2.222-10.41-5.277c-0.435,0.745-0.683,1.612-0.683,2.539
	c0,1.752,0.892,3.299,2.246,4.203c-0.828-0.028-1.606-0.255-2.288-0.634v0.063c0,2.446,1.742,4.488,4.051,4.953
	c-0.423,0.114-0.869,0.177-1.331,0.177c-0.326,0-0.642-0.032-0.951-0.094c0.643,2.008,2.508,3.468,4.717,3.508
	c-1.728,1.354-3.906,2.159-6.273,2.159c-0.408,0-0.809-0.025-1.205-0.069c2.236,1.436,4.89,2.272,7.742,2.272
	c9.291,0,14.37-7.696,14.37-14.37l-0.017-0.654C35.96,20.444,36.819,19.555,37.494,18.542z"/>
</svg>
