<?xml version="1.0" encoding="utf-8"?>
<!-- Generator: Adobe Illustrator 17.0.0, SVG Export Plug-In . SVG Version: 6.00 Build 0)  -->
<!DOCTYPE svg PUBLIC "-//W3C//DTD SVG 1.1//EN" "http://www.w3.org/Graphics/SVG/1.1/DTD/svg11.dtd">
<svg version="1.1" id="Layer_1" xmlns="http://www.w3.org/2000/svg" xmlns:xlink="http://www.w3.org/1999/xlink" x="0px" y="0px"
	 width="50.5px" height="50.5px" viewBox="0 0 50.5 50.5" enable-background="new 0 0 50.5 50.5" xml:space="preserve">
<g opacity="0.8">
	<circle fill="none" stroke="#BE9857" stroke-width="0.5" stroke-miterlimit="10" cx="25.25" cy="25.25" r="25"/>
	<g>
		<path fill="#FFFFFF" d="M25.25,44.75c-10.752,0-19.5-8.748-19.5-19.5s8.748-19.5,19.5-19.5s19.5,8.748,19.5,19.5
			S36.003,44.75,25.25,44.75z"/>
		<path fill="#BE9857" d="M25.25,7.25c9.925,0,18,8.075,18,18s-8.075,18-18,18s-18-8.075-18-18S15.325,7.25,25.25,7.25 M25.25,4.25
			c-11.598,0-21,9.402-21,21c0,11.598,9.402,21,21,21s21-9.402,21-21C46.25,13.652,36.848,4.25,25.25,4.25L25.25,4.25z"/>
	</g>
</g>
<path id="WhatsApp_1_" opacity="0.8" fill="#21282F" d="M35.25,24.992c0,5.381-4.395,9.742-9.818,9.742
	c-1.722,0-3.339-0.44-4.746-1.212L15.25,35.25l1.772-5.227c-0.894-1.468-1.409-3.19-1.409-5.03c0-5.381,4.396-9.742,9.818-9.742
	C30.855,15.25,35.25,19.612,35.25,24.992z M25.432,16.802c-4.552,0-8.255,3.674-8.255,8.191c0,1.792,0.584,3.452,1.572,4.802
	l-1.031,3.042l3.172-1.008c1.303,0.856,2.865,1.355,4.542,1.355c4.551,0,8.255-3.674,8.255-8.19S29.984,16.802,25.432,16.802z
	 M30.39,27.236c-0.061-0.099-0.221-0.159-0.461-0.279c-0.241-0.119-1.424-0.697-1.644-0.777c-0.221-0.08-0.382-0.12-0.542,0.119
	c-0.16,0.239-0.622,0.777-0.762,0.936c-0.14,0.16-0.281,0.18-0.522,0.06c-0.24-0.119-1.016-0.372-1.935-1.185
	c-0.715-0.633-1.198-1.414-1.339-1.654c-0.14-0.239-0.015-0.368,0.106-0.487c0.108-0.107,0.241-0.279,0.361-0.418
	c0.121-0.14,0.161-0.239,0.24-0.398c0.081-0.159,0.04-0.299-0.02-0.418c-0.06-0.119-0.542-1.294-0.742-1.773
	c-0.2-0.478-0.401-0.398-0.541-0.398c-0.14,0-0.301-0.02-0.461-0.02s-0.421,0.06-0.642,0.299c-0.22,0.239-0.842,0.817-0.842,1.992
	c0,1.175,0.862,2.31,0.983,2.47c0.12,0.159,1.664,2.649,4.111,3.605c2.447,0.956,2.447,0.637,2.888,0.597
	c0.441-0.04,1.424-0.578,1.625-1.135C30.45,27.814,30.45,27.336,30.39,27.236z"/>
</svg>
