<svg id="Layer_1" data-name="Layer 1" xmlns="http://www.w3.org/2000/svg" xmlns:xlink="http://www.w3.org/1999/xlink" viewBox="0 0 39.57 18.43">
<defs><style>.cls-1{opacity:0.8;}.cls-2{fill:url(#linear-gradient);}.cls-3{fill:#fff;}</style>
<linearGradient id="linear-gradient" x1="1.18" y1="9.59" x2="38.05" y2="9.59" gradientUnits="userSpaceOnUse"><stop offset="0" stop-color="#deb671"/>
<stop offset="1" stop-color="#ad7e00"/></linearGradient></defs>
<path class="cls-2" d="M30,1.59a7.61,7.61,0,0,0-6.29,3.07,10.2,10.2,0,0,1-7.69,4.21h-2c-0.57,0-3.1,0-3.71-.08A5.42,5.42,0,0,1,7.72,7.42a4.61,4.61,0,0,0-3.07-1.3,3.47,3.47,0,1,0,0,6.94,4.62,4.62,0,0,0,3.11-1.41,5.1,5.1,0,0,1,2.63-1.38c0.61-.1,3.14,0,3.71,0l2,0a10.49,10.49,0,0,1,7.71,4.29,7.59,7.59,0,0,0,6.28,3A8,8,0,1,0,30,1.59Z"/><path class="cls-3" d="M30,1.59a8,8,0,1,1,0,16,7.59,7.59,0,0,1-6.28-3,10.49,10.49,0,0,0-7.71-4.29l-2,0c-0.33,0-1.33,0-2.22,0a13.32,13.32,0,0,0-1.49.05,5.1,5.1,0,0,0-2.63,1.38,4.62,4.62,0,0,1-3.11,1.41,3.47,3.47,0,1,1,0-6.94,4.61,4.61,0,0,1,3.07,1.3,5.42,5.42,0,0,0,2.67,1.37c0.45,0.07,1.95.08,2.93,0.08h2.74a10.2,10.2,0,0,0,7.69-4.21A7.61,7.61,0,0,1,30,1.59m0-.5a8.05,8.05,0,0,0-6.72,3.3,9.77,9.77,0,0,1-7.27,4H13.32a26.13,26.13,0,0,1-2.85-.08A4.93,4.93,0,0,1,8.09,7.08,5.1,5.1,0,0,0,4.65,5.62a4,4,0,1,0,0,7.94A5.1,5.1,0,0,0,8.13,12a4.62,4.62,0,0,1,2.36-1.22,12.14,12.14,0,0,1,1.4,0l2,0h0.26l2,0a10.06,10.06,0,0,1,7.3,4.06A8,8,0,0,0,30,18.09a8.5,8.5,0,1,0,0-17h0Z"/></svg>