<svg id="Layer_1" data-name="Layer 1" xmlns="http://www.w3.org/2000/svg" xmlns:xlink="http://www.w3.org/1999/xlink" viewBox="0 0 39.57 18.43"><defs><style>.cls-1{fill:url(#linear-gradient);}</style><linearGradient id="linear-gradient" x1="1.18" y1="9.57" x2="38.05" y2="9.57" gradientUnits="userSpaceOnUse"><stop offset="0" stop-color="#ed1c24"/><stop offset="1" stop-color="#991720"/></linearGradient></defs><title>todos</title><path class="cls-1" d="M30,1.57a7.61,7.61,0,0,0-6.29,3.07,10.2,10.2,0,0,1-7.69,4.21h-2c-0.57,0-3.1,0-3.71-.08A5.42,5.42,0,0,1,7.72,7.4,4.61,4.61,0,0,0,4.65,6.1a3.47,3.47,0,0,0,0,6.94,4.62,4.62,0,0,0,3.11-1.41,5.1,5.1,0,0,1,2.63-1.38c0.61-.1,3.14,0,3.71,0l2,0a10.49,10.49,0,0,1,7.71,4.29,7.59,7.59,0,0,0,6.28,3A8,8,0,1,0,30,1.57Z"/></svg>