<?xml version="1.0" standalone="no"?>
<!DOCTYPE svg PUBLIC "-//W3C//DTD SVG 1.1//EN" "http://www.w3.org/Graphics/SVG/1.1/DTD/svg11.dtd" >
<svg xmlns="http://www.w3.org/2000/svg">
<metadata>
This is a custom SVG webfont generated by Font Squirrel.
Copyright   : Copyright c 1985 1987 1989 1990 Adobe Systems Incorporated All Rights ReservedHelvetica is a trademark of Linotype AG andor its subsidiaries
</metadata>
<defs>
<font id="HelveticaBold" horiz-adv-x="1139" >
<font-face units-per-em="2048" ascent="1638" descent="-410" />
<missing-glyph horiz-adv-x="569" />
<glyph unicode=" "  horiz-adv-x="569" />
<glyph unicode="&#x09;" horiz-adv-x="569" />
<glyph unicode="&#xa0;" horiz-adv-x="569" />
<glyph unicode="!" horiz-adv-x="682" d="M184 1096v374h316v-374l-82 -688h-152zM193 0v289h299v-289h-299z" />
<glyph unicode="&#x22;" horiz-adv-x="971" d="M201 915v555h200v-555h-200zM569 915v555h201v-555h-201z" />
<glyph unicode="#" d="M37 408l24 184h199l35 246h-199l25 184h198l58 408h192l-57 -408h199l57 408h193l-58 -408h199l-25 -184h-198l-35 -246h198l-24 -184h-199l-57 -408h-193l58 408h-199l-57 -408h-193l58 408h-199zM453 592h198l35 246h-199z" />
<glyph unicode="$" d="M61 440h269q7 -83 22 -131t55.5 -80.5t114.5 -46.5v430q-126 34 -217 77t-152 125t-61 214q0 115 48 211t146 155t236 60v133h94v-133q103 -10 191.5 -43t159 -126t82.5 -259h-265q-6 89 -29.5 135t-58 61t-80.5 15v-383q132 -41 218 -82.5t124 -79.5q113 -106 113 -286 q0 -103 -46 -200.5t-148.5 -165t-260.5 -75.5v-201h-94v201q-165 13 -267 67.5t-148 153.5t-46 254zM350 1077q0 -155 172 -194v354q-57 -3 -95.5 -27.5t-57.5 -60.5t-19 -72zM616 182q68 4 124.5 50t56.5 151q0 81 -53 128t-128 67v-396z" />
<glyph unicode="%" horiz-adv-x="1821" d="M57 1081q0 75 29.5 144.5t80.5 120t119 79.5t144 29q98 0 184.5 -50.5t137.5 -137t51 -185.5q0 -76 -28.5 -143.5t-81 -119.5t-119.5 -80.5t-144 -28.5q-101 0 -186.5 49t-136 135.5t-50.5 187.5zM268 1081q0 -66 48.5 -113.5t113.5 -47.5q67 0 114.5 46.5t47.5 114.5 q0 69 -47.5 115.5t-114.5 46.5q-65 0 -113.5 -47.5t-48.5 -114.5zM422 -39l815 1493h152l-816 -1493h-151zM1018 348q0 75 29.5 144.5t80.5 120t119 79.5t144 29q98 0 185 -51t137 -137t50 -185q0 -77 -28.5 -144t-82 -120t-121.5 -81t-140 -28q-101 0 -186.5 49.5t-136 136 t-50.5 187.5zM1229 348q0 -65 48.5 -113.5t113.5 -48.5q66 0 113.5 47.5t47.5 114.5q0 69 -47.5 115.5t-113.5 46.5q-65 0 -113.5 -47.5t-48.5 -114.5z" />
<glyph unicode="&#x26;" horiz-adv-x="1479" d="M111 379q0 123 57.5 224.5t224.5 203.5l31 18q-55 63 -94 142.5t-39 165.5q0 149 109 243t282 94q88 0 170 -37.5t136 -114.5t54 -188q0 -133 -76.5 -214.5t-166.5 -135.5l209 -258q62 101 75 242h254q-13 -147 -51.5 -244t-116.5 -198l267 -322h-346l-101 125 q-78 -78 -173.5 -121t-246.5 -43q-100 0 -185.5 33.5t-146.5 93t-93.5 134.5t-32.5 157zM397 397q0 -63 52 -128.5t165 -65.5q117 0 228 102l-271 338q-57 -42 -84.5 -65t-47.5 -48t-31 -58.5t-11 -74.5zM553 1135q0 -36 26 -80.5t80 -104.5q136 85 136 183q0 60 -34.5 90 t-88.5 30q-51 0 -85 -31.5t-34 -86.5z" />
<glyph unicode="'" horiz-adv-x="487" d="M143 915v555h201v-555h-201z" />
<glyph unicode="(" horiz-adv-x="682" d="M72 535q0 143 28.5 277.5t77 253.5t111.5 224.5t143 212.5h211q-67 -115 -114 -213.5t-84 -216.5t-57.5 -254t-20.5 -284q0 -152 22 -287.5t59 -249t83.5 -212t111.5 -212.5h-211q-86 118 -142.5 213.5t-107.5 217t-80.5 253t-29.5 277.5z" />
<glyph unicode=")" horiz-adv-x="682" d="M39 -426q135 229 205.5 450.5t70.5 518.5q0 199 -35.5 366.5t-92.5 300.5t-148 293h211q104 -142 182 -284t128 -315.5t50 -360.5q0 -148 -28.5 -282.5t-78 -253t-112.5 -224t-141 -209.5h-211z" />
<glyph unicode="*" horiz-adv-x="797" d="M55 1147l47 149l209 -69v243h174v-243l207 69l49 -149l-215 -66l142 -198l-129 -90l-140 186l-141 -186l-129 90l139 198z" />
<glyph unicode="+" horiz-adv-x="1196" d="M82 403v230h401v403h230v-403h401v-230h-401v-403h-230v403h-401z" />
<glyph unicode="," horiz-adv-x="569" d="M131 0v299h307v-258q0 -122 -38.5 -199.5t-104.5 -120t-162 -65.5h-2v108q78 28 121.5 74.5t50.5 161.5h-172z" />
<glyph unicode="-" horiz-adv-x="682" d="M55 440v267h572v-267h-572z" />
<glyph unicode="." horiz-adv-x="569" d="M131 0v299h307v-299h-307z" />
<glyph unicode="/" horiz-adv-x="569" d="M-68 -39l465 1548h240l-465 -1548h-240z" />
<glyph unicode="0" d="M66 709q0 382 123 563.5t380 181.5q170 0 282.5 -80t167 -246t54.5 -419q0 -254 -54.5 -420.5t-166.5 -247t-283 -80.5t-282.5 80.5t-166 247t-54.5 420.5zM360 709q0 -145 10 -241t33.5 -158.5t64 -91t101.5 -28.5q82 0 127 51t63.5 162t18.5 306q0 194 -18.5 304.5 t-64 161t-126.5 50.5q-80 0 -126 -51t-64.5 -161t-18.5 -304z" />
<glyph unicode="1" d="M141 1001v201h41q187 0 269 75.5t88 176.5h235v-1454h-287v1001h-346z" />
<glyph unicode="2" d="M53 0q7 95 17 151t41 122.5t101.5 146t178.5 158.5q163 118 229.5 173.5t102 115.5t35.5 139q0 82 -51.5 144t-149.5 62q-132 0 -169.5 -76t-39.5 -196h-278q0 214 84 329t190 150t201 35q140 0 254 -54t179.5 -158t65.5 -247q0 -167 -81.5 -273t-221.5 -200 q-150 -106 -190 -134.5t-79.5 -64.5t-55.5 -69h631v-254h-994z" />
<glyph unicode="3" d="M55 446h281l-2 -2q0 -93 43.5 -173.5t169.5 -80.5q90 0 152.5 62.5t62.5 177.5q0 92 -50.5 138t-118.5 57.5t-157 11.5v205h45q60 0 112 11.5t92 54.5t40 130q0 65 -39.5 126t-142.5 61q-127 0 -162 -76.5t-35 -161.5h-266q0 103 28.5 188t88.5 148t152 97t212 34 q107 0 210.5 -39.5t172 -130.5t68.5 -235q0 -102 -50.5 -172.5t-123.5 -104.5v-4q41 -12 89.5 -45.5t89 -107.5t40.5 -185q0 -135 -63 -242t-175 -167t-258 -60q-72 0 -152 15t-162 63.5t-137 148.5t-55 258z" />
<glyph unicode="4" d="M55 322v247l535 885h325v-909h162v-223h-162v-322h-286v322h-574zM266 545h363q0 133 1 220t3 247t2 157h-4z" />
<glyph unicode="5" d="M55 389h287q9 -92 60 -145.5t143 -53.5q67 0 116.5 35.5t75 98t25.5 139.5q0 67 -22.5 126.5t-71 96.5t-119.5 37q-136 0 -193 -105l-256 13l101 799h798v-242h-591l-52 -316q54 38 111 59t149 21q105 0 207 -50.5t168 -156t66 -262.5q0 -85 -24.5 -173.5t-84 -168.5 t-163.5 -130t-257 -50q-117 0 -223 47.5t-174.5 144.5t-75.5 236z" />
<glyph unicode="6" d="M63 692q0 188 35 352.5t155 287t351 122.5q67 0 157.5 -22.5t139.5 -71.5q63 -61 90 -113.5t45 -161.5h-284q-6 64 -48 102t-120 38q-127 0 -179 -113t-61 -289l4 -4q89 121 273 121q143 0 244 -64.5t150.5 -167.5t49.5 -216q0 -158 -60 -278.5t-167.5 -186.5t-247.5 -66 q-301 0 -414 203.5t-113 527.5zM350 461q0 -119 62.5 -195t165.5 -76q54 0 99.5 29t73 92t27.5 156q0 125 -64 184.5t-145 59.5q-59 0 -108.5 -26t-80 -81.5t-30.5 -142.5z" />
<glyph unicode="7" d="M51 1176l6 254h1024v-222q-72 -79 -150.5 -183.5t-162 -258.5t-144 -350.5t-73.5 -415.5h-295q11 202 72 394.5t144 346t159 257.5t143 178h-723z" />
<glyph unicode="8" d="M66 403q0 104 39 203t182 166q-176 87 -176 285q0 120 59 210.5t162.5 138.5t230.5 48q111 0 197 -29t145.5 -83.5t89 -122t29.5 -144.5q0 -204 -168 -293q109 -53 163 -133t54 -217q0 -77 -26 -157t-84.5 -151.5t-157.5 -117t-236 -45.5q-174 0 -287.5 66t-164.5 166.5 t-51 209.5zM360 422q0 -104 57 -168t154 -64q70 0 117 34.5t68.5 87.5t21.5 108q0 91 -51.5 159t-161.5 68q-85 0 -145 -57t-60 -168zM385 1044q0 -70 51 -125t135 -55q83 0 131 50t48 130q0 55 -22.5 95.5t-61.5 63t-84 22.5q-95 0 -146 -49t-51 -132z" />
<glyph unicode="9" d="M61 932q0 172 63 289.5t175 175t258 57.5q176 0 284 -81.5t155.5 -199t60 -230.5t12.5 -236q0 -205 -43.5 -348.5t-118 -230.5t-169.5 -127t-197 -40q-122 0 -220.5 45.5t-158.5 130.5t-72 199h285v-2q23 -144 168 -144q48 0 90 22t75 69t53.5 126.5t20.5 188.5l-4 4 q-82 -123 -276 -123q-103 0 -184 36t-139 99.5t-88 145t-30 174.5zM348 973q0 -266 215 -266q53 0 101.5 26t79 81t30.5 136q0 126 -56 197.5t-163 71.5q-47 0 -93 -20t-80 -75.5t-34 -150.5z" />
<glyph unicode=":" horiz-adv-x="682" d="M188 0v299h308v-299h-308zM188 750v299h308v-299h-308z" />
<glyph unicode=";" horiz-adv-x="682" d="M188 0v299h308v-258q0 -122 -38.5 -199.5t-105.5 -120t-162 -65.5h-2v108q78 28 121.5 74.5t50.5 161.5h-172zM188 750v299h308v-299h-308z" />
<glyph unicode="&#x3c;" horiz-adv-x="1196" d="M78 426v184l1040 443v-222l-743 -313l743 -313v-221z" />
<glyph unicode="=" horiz-adv-x="1196" d="M82 178v230h1032v-230h-1032zM82 629v229h1032v-229h-1032z" />
<glyph unicode="&#x3e;" horiz-adv-x="1196" d="M78 -16v221l743 313l-743 313v222l1040 -443v-184z" />
<glyph unicode="?" horiz-adv-x="1251" d="M123 1010q0 127 43 220t115 150t158.5 83t174.5 26q96 0 214.5 -30.5t214.5 -127t96 -278.5q0 -80 -28 -144.5t-82.5 -119t-137.5 -113.5q-71 -52 -98 -99t-27 -151h-270q0 110 13.5 173.5t58 120.5t137.5 122q126 88 126 202q0 109 -59 156t-139 47q-86 0 -133 -36 t-65 -89t-23 -110v-2h-289zM487 0v289h299v-289h-299z" />
<glyph unicode="@" horiz-adv-x="1997" d="M242 735q0 160 61 302t172 249t254.5 165t302.5 58q142 0 270.5 -44.5t230.5 -128.5t161 -202t59 -257q0 -153 -57 -269t-142 -187t-174 -105.5t-149 -34.5q-46 0 -80 27.5t-37 80.5l-4 2q-43 -48 -100.5 -79t-114.5 -31q-87 0 -163 48.5t-121.5 130.5t-45.5 177 q0 97 31 187t90.5 163.5t140 114.5t177.5 41q165 0 247 -133l27 108h180l-119 -522q-14 -58 -14 -86q0 -43 31 -43q55 0 108.5 44.5t88 127.5t34.5 188q0 124 -42 220.5t-118.5 164t-177 101t-221.5 33.5q-127 0 -237 -47t-187 -130t-118.5 -196.5t-41.5 -241.5 q0 -179 78.5 -317t219 -213.5t315.5 -75.5q125 0 235 44t195 122h182q-53 -78 -121 -139.5t-147 -103.5t-172 -64.5t-185 -22.5q-162 0 -309.5 58t-258 163t-172.5 248.5t-62 304.5zM786 668q0 -81 43 -132t117 -51q69 0 125.5 42.5t87.5 108.5t31 134q0 51 -21 90t-58 61.5 t-85 22.5q-68 0 -123.5 -42t-86 -106t-30.5 -128z" />
<glyph unicode="A" horiz-adv-x="1479" d="M41 0l524 1470h355l518 -1470h-334l-94 303h-543l-102 -303h-324zM549 557h375l-183 582h-4z" />
<glyph unicode="B" horiz-adv-x="1479" d="M156 0v1470h714q243 0 348 -115.5t105 -260.5q0 -137 -53 -201t-127 -100q227 -86 227 -357q0 -87 -34 -166t-93 -137q-50 -48 -99 -75.5t-137 -42.5t-229 -15h-622zM451 254h376q116 0 176 52t60 163q0 90 -64 134t-157 44h-391v-393zM451 895h360q63 0 111.5 17 t77 54.5t28.5 92.5q0 87 -56.5 122.5t-168.5 35.5h-352v-322z" />
<glyph unicode="C" horiz-adv-x="1479" d="M90 733q0 185 51 333t143.5 246.5t214.5 147.5t267 49q157 0 277.5 -48.5t196 -126t115.5 -167.5t46 -178h-307q-29 107 -94.5 180.5t-231.5 73.5q-142 0 -253.5 -117.5t-111.5 -396.5q0 -136 38.5 -251t120 -183t206.5 -68q128 0 213.5 71.5t112.5 205.5h307 q-33 -166 -113.5 -286.5t-214 -188.5t-311.5 -68q-198 0 -349.5 88t-237 263t-85.5 421z" />
<glyph unicode="D" horiz-adv-x="1479" d="M156 0v1470h649q229 0 362.5 -109t184.5 -266t51 -325q0 -129 -29 -261.5t-99 -249t-190.5 -188t-291.5 -71.5h-637zM457 254h299q174 0 254 144t80 350q0 198 -53 303t-126.5 135.5t-158.5 30.5h-295v-963z" />
<glyph unicode="E" horiz-adv-x="1366" d="M156 0v1470h1081v-260h-780v-309h717v-260h-717v-381h815v-260h-1116z" />
<glyph unicode="F" horiz-adv-x="1251" d="M156 0v1470h1046v-260h-739v-331h647v-261h-647v-618h-307z" />
<glyph unicode="G" horiz-adv-x="1593" d="M90 731q0 156 43 294t133 248.5t226 173t317 62.5q210 0 353 -77t213 -190.5t79 -227.5h-307q0 34 -38.5 93t-111 103.5t-172.5 44.5q-115 0 -211 -55.5t-153.5 -174.5t-57.5 -298q0 -143 36 -243t97.5 -157t136.5 -81.5t158 -24.5q53 0 122.5 23t138 95.5t96.5 205.5 h-342v248h614v-793h-205l-30 184q-44 -51 -79 -84.5t-87.5 -65.5t-125 -52.5t-167.5 -20.5q-135 0 -256 48.5t-216 145.5t-149.5 243t-54.5 333z" />
<glyph unicode="H" horiz-adv-x="1479" d="M145 0v1470h308v-557h573v557h307v-1470h-307v659h-573v-659h-308z" />
<glyph unicode="I" horiz-adv-x="569" d="M131 0v1470h307v-1470h-307z" />
<glyph unicode="J" d="M45 555h287q0 -97 5.5 -156t24 -103t54 -64.5t96.5 -20.5q108 0 140 55t32 160v1044h307v-1044q0 -153 -52.5 -257t-154 -155t-249.5 -51q-172 0 -275.5 50t-149.5 135t-55.5 175t-9.5 232z" />
<glyph unicode="K" horiz-adv-x="1479" d="M178 0v1470h307v-598l562 598h397l-600 -602l635 -868h-396l-454 645l-144 -147v-498h-307z" />
<glyph unicode="L" horiz-adv-x="1251" d="M156 0v1470h307v-1204h731v-266h-1038z" />
<glyph unicode="M" horiz-adv-x="1706" d="M141 0v1470h449l266 -1159h4l262 1159h445v-1470h-287v1229h-4l-275 -1229h-301l-268 1229h-4v-1229h-287z" />
<glyph unicode="N" horiz-adv-x="1479" d="M141 0v1470h324l584 -1024h4v1024h286v-1470h-307l-600 1049h-4v-1049h-287z" />
<glyph unicode="O" horiz-adv-x="1593" d="M90 735q0 313 124.5 485.5t284 230.5t298.5 58q97 0 210 -27.5t227.5 -108t191.5 -239t77 -399.5t-76.5 -398.5t-191 -238t-228 -109t-210.5 -28.5q-139 0 -298.5 58t-284 230.5t-124.5 485.5zM397 735q0 -276 122 -395t278 -119q97 0 187 46.5t151 162t61 305.5 q0 149 -36.5 250.5t-95 158t-128 81t-139.5 24.5t-138.5 -24t-128 -82t-96.5 -160.5t-37 -247.5z" />
<glyph unicode="P" horiz-adv-x="1366" d="M156 0v1470h671q108 0 191.5 -32t143 -93.5t91 -150.5t31.5 -195q0 -64 -20 -140t-72 -153t-144.5 -126.5t-232.5 -49.5h-352v-530h-307zM463 784h285q149 0 189 70t40 160q0 107 -63.5 155t-206.5 48h-244v-433z" />
<glyph unicode="Q" horiz-adv-x="1593" d="M90 735q0 313 124.5 485.5t284 230.5t298.5 58q97 0 210 -27.5t227.5 -108t191.5 -239t77 -399.5q0 -87 -12 -168.5t-30.5 -141t-48.5 -116.5t-62 -98l159 -152l-161 -165l-174 165q-63 -37 -132.5 -59t-133 -30.5t-111.5 -8.5q-139 0 -298.5 58t-284 230.5t-124.5 485.5 zM397 735q0 -276 122 -395t278 -119q91 0 166 39l-148 139l158 166l155 -145q68 126 68 315q0 149 -36.5 250.5t-95 158t-128 81t-139.5 24.5t-138.5 -24t-128 -82t-96.5 -160.5t-37 -247.5z" />
<glyph unicode="R" horiz-adv-x="1479" d="M156 0v1470h743q138 0 231 -44t142.5 -109.5t69.5 -133.5t20 -128q0 -81 -26.5 -151.5t-78 -122.5t-122.5 -76q53 -23 85.5 -46.5t55 -60.5t34 -100.5t11.5 -165.5q0 -97 1.5 -142.5t7 -76.5t19 -48t37.5 -26v-39h-339q-33 110 -33 297q0 116 -13.5 170t-64 81t-162.5 27 h-317v-575h-301zM457 823h360q82 0 134 20.5t78 65.5t26 115q0 76 -47.5 134.5t-167.5 58.5h-383v-394z" />
<glyph unicode="S" horiz-adv-x="1366" d="M80 453h295q2 -54 26 -107t93 -92t192 -39q130 0 218.5 42t88.5 149q0 77 -62.5 113.5t-203.5 68.5l-158 37q-156 35 -248.5 73t-155.5 123t-63 236q0 101 46.5 203t174 175.5t345.5 73.5q162 0 272.5 -45.5t176 -117.5t95 -154.5t29.5 -157.5h-295q-10 86 -69 153.5 t-232 67.5q-63 0 -121.5 -17t-96.5 -57t-38 -102q0 -75 44 -106.5t112 -46.5l358 -88q181 -45 283 -130.5t102 -265.5q0 -199 -107 -306.5t-236.5 -141t-235.5 -33.5q-190 0 -316.5 48t-193.5 123t-93 158t-26 163z" />
<glyph unicode="T" horiz-adv-x="1251" d="M29 1210v260h1196v-260h-445v-1210h-307v1210h-444z" />
<glyph unicode="U" horiz-adv-x="1479" d="M147 496v974h314v-954q0 -145 74 -220t188 -75q297 0 297 281v968h313v-956q0 -282 -158 -417.5t-446 -135.5q-126 0 -251.5 39.5t-215.5 138.5q-40 44 -64.5 99t-36 116.5t-14.5 141.5z" />
<glyph unicode="V" horiz-adv-x="1366" d="M39 1470h330l315 -1114h4l320 1114h319l-500 -1470h-292z" />
<glyph unicode="W" horiz-adv-x="1933" d="M33 1470h327q44 -185 105.5 -454.5t72.5 -320t31.5 -161t24.5 -139.5h4q17 96 26.5 153.5t34.5 189t52.5 270.5t91.5 462h325q58 -269 99.5 -465t65 -311.5t32.5 -165.5t23 -133h4q11 64 19 104t53.5 246.5t80.5 356.5t86 368h312l-414 -1470h-295q-93 444 -123.5 593.5 t-55.5 285t-48 268.5h-4q-29 -184 -57 -323.5t-171 -823.5h-286z" />
<glyph unicode="X" horiz-adv-x="1366" d="M29 0l475 752l-449 718h367l262 -475l268 475h355l-449 -706l479 -764h-374l-279 502l-297 -502h-358z" />
<glyph unicode="Y" horiz-adv-x="1366" d="M31 1470h362l305 -639l291 639h348l-491 -919v-551h-307v555z" />
<glyph unicode="Z" horiz-adv-x="1251" d="M51 0v260l760 950h-739v260h1124v-241l-770 -969h774v-260h-1149z" />
<glyph unicode="[" horiz-adv-x="682" d="M129 -401v1880h504v-197h-254v-1487h254v-196h-504z" />
<glyph unicode="\" horiz-adv-x="569" d="M-68 1509h240l465 -1548h-240z" />
<glyph unicode="]" horiz-adv-x="682" d="M49 -205h254v1487h-254v197h504v-1880h-504v196z" />
<glyph unicode="^" horiz-adv-x="1196" d="M127 662l369 768h204l369 -768h-225l-246 538l-248 -538h-223z" />
<glyph unicode="_" d="M0 -154h1139v-102h-1139v102z" />
<glyph unicode="`" horiz-adv-x="682" d="M-47 1536h315l193 -299h-207z" />
<glyph unicode="a" d="M59 289q0 103 40.5 176.5t112 115.5t165.5 56l258 39q100 13 100 86q0 79 -53 103t-135 24q-96 0 -132 -43.5t-44 -108.5h-277q15 155 86 240t170.5 113t231.5 28q69 0 141.5 -13t139 -46.5t110 -97t43.5 -158.5v-590q0 -61 8 -96.5t22 -51.5t33 -22v-43h-309 q-19 61 -27 129q-46 -48 -87 -79.5t-108 -55t-157 -23.5q-137 0 -234.5 80.5t-97.5 237.5zM346 307q0 -68 41 -99.5t92 -31.5q65 0 124 26.5t95.5 75t36.5 113.5v139q-46 -36 -194 -59q-97 -16 -146 -49.5t-49 -114.5z" />
<glyph unicode="b" horiz-adv-x="1251" d="M125 0v1470h287v-522h4q109 170 315 170q123 0 226.5 -63t165 -189.5t61.5 -308.5q0 -156 -48.5 -289.5t-153 -215t-257.5 -81.5q-98 0 -181.5 39.5t-133.5 126.5h-4v-137h-281zM399 520q0 -134 63.5 -223.5t190.5 -89.5q85 0 138 52t75.5 128.5t22.5 149.5q0 92 -24 167 t-79 120.5t-141 45.5q-134 0 -190 -99t-56 -251z" />
<glyph unicode="c" d="M70 514q0 181 54.5 316.5t172 211.5t295.5 76q100 0 206 -37t184.5 -131t90.5 -250h-291q-12 70 -55.5 123.5t-134.5 53.5q-122 0 -174.5 -95.5t-52.5 -220.5q0 -92 12 -164.5t60.5 -131t148.5 -58.5q68 0 111 34.5t63 78.5t20 77h291q-4 -49 -27.5 -119t-80 -141.5 t-153.5 -118.5t-237 -47q-189 0 -302 82.5t-157 205t-44 255.5z" />
<glyph unicode="d" horiz-adv-x="1251" d="M70 557q0 182 61.5 308.5t164.5 189.5t226 63q207 0 316 -170h4v522h286v-1470h-280v137h-4q-50 -87 -134 -126.5t-182 -39.5q-153 0 -256.5 81t-152.5 215t-49 290zM365 537q0 -73 22.5 -149.5t74.5 -128.5t138 -52q129 0 191.5 89.5t62.5 223.5q0 99 -22 175.5 t-76 125.5t-148 49q-127 0 -185 -94t-58 -239z" />
<glyph unicode="e" d="M47 567q0 102 37 226t153 224.5t332 100.5q94 0 181 -26.5t162 -91.5t122 -184t47 -298v-51h-747q4 -44 12.5 -84.5t34 -83t78 -70.5t131.5 -28q64 0 116 31.5t68 86.5h295q-36 -124 -111.5 -201.5t-170 -112t-197.5 -34.5q-121 0 -218 31.5t-170.5 102t-114 185.5 t-40.5 277zM342 653h444q-7 82 -41.5 134t-82 74t-97.5 22q-197 0 -223 -230z" />
<glyph unicode="f" horiz-adv-x="682" d="M20 885v205h158v88q0 108 38.5 178.5t108.5 101.5t173 31q99 0 147 -4v-232h-80q-69 0 -84.5 -23.5t-15.5 -96.5v-43h186v-205h-186v-885h-287v885h-158z" />
<glyph unicode="g" horiz-adv-x="1251" d="M82 557q0 182 61.5 308.5t165 189.5t226.5 63q225 0 319 -190h4v162h275v-1033q0 -132 -31 -237.5t-154 -184.5t-366 -79q-89 0 -169 18.5t-150 60.5t-110.5 103t-46.5 145h312q8 -35 23.5 -57.5t57.5 -37.5t119 -15q117 0 172.5 59t55.5 191v131l-4 4 q-41 -75 -107 -119.5t-184 -44.5q-206 0 -337.5 145t-131.5 418zM377 539q0 -123 55 -213t172 -90q91 0 145.5 45t76.5 115t22 155q0 91 -28.5 162.5t-84.5 114t-133 42.5q-59 0 -109.5 -31.5t-83 -105.5t-32.5 -194z" />
<glyph unicode="h" horiz-adv-x="1251" d="M133 0v1470h287v-522h4q30 71 116.5 120.5t198.5 49.5q107 0 194 -42t136 -123.5t49 -198.5v-754h-287v662q0 91 -33 153t-153 62q-100 0 -162.5 -66t-62.5 -186v-625h-287z" />
<glyph unicode="i" horiz-adv-x="569" d="M141 0v1090h287v-1090h-287zM141 1219v266h287v-266h-287z" />
<glyph unicode="j" horiz-adv-x="569" d="M6 -209h51q36 0 60 17.5t24 82.5v1199h287v-1205q0 -138 -40.5 -207.5t-113.5 -92.5t-196 -23h-72v229zM141 1219v266h287v-266h-287z" />
<glyph unicode="k" d="M141 0v1470h287v-794l360 414h353l-385 -422l395 -668h-344l-260 467l-119 -123v-344h-287z" />
<glyph unicode="l" horiz-adv-x="569" d="M141 0v1470h287v-1470h-287z" />
<glyph unicode="m" horiz-adv-x="1821" d="M131 0v1090h275v-160h4q95 188 309 188q78 0 131.5 -18.5t92.5 -56t79 -99.5q28 42 61.5 78t91.5 66t138 30q107 0 194 -42t136 -123.5t49 -198.5v-754h-287v662q0 112 -43 163.5t-113 51.5q-194 0 -194 -224v-653h-287v655q0 66 -8.5 110.5t-46.5 78t-117 33.5 q-178 0 -178 -213v-664h-287z" />
<glyph unicode="n" horiz-adv-x="1251" d="M133 0v1090h275v-160h4q47 78 120 133t207 55q107 0 194 -42t136 -123.5t49 -198.5v-754h-287v662q0 91 -33 153t-153 62q-100 0 -162.5 -66t-62.5 -186v-625h-287z" />
<glyph unicode="o" horiz-adv-x="1251" d="M70 545q0 188 76 317.5t203 192.5t278 63t278 -63t203 -192.5t76 -317.5q0 -145 -44.5 -253.5t-122 -179t-177.5 -106t-213 -35.5q-112 0 -213 36t-178.5 107.5t-121.5 180.5t-44 250zM365 545q0 -135 57 -233.5t205 -98.5t205 98.5t57 233.5q0 136 -57 234t-205 98 t-205 -98t-57 -234z" />
<glyph unicode="p" horiz-adv-x="1251" d="M127 -424v1514h274v-158h5q54 86 125 136t200 50q123 0 226.5 -63t165 -189.5t61.5 -308.5q0 -156 -48.5 -289.5t-153 -215t-257.5 -81.5q-91 0 -153.5 27.5t-94.5 61.5t-59 79h-4v-563h-287zM401 520q0 -133 62 -223t190 -90q85 0 138 52t75.5 128.5t22.5 149.5 q0 92 -24 167t-79 120.5t-141 45.5q-93 0 -147 -48.5t-75.5 -125.5t-21.5 -176z" />
<glyph unicode="q" horiz-adv-x="1251" d="M70 522q0 116 28.5 224t86.5 192t149 132t213 48q121 0 191.5 -56.5t113.5 -133.5h4v162h274v-1514h-286v559h-4q-89 -164 -310 -164q-159 0 -263 85t-150.5 212t-46.5 254zM365 524q0 -150 60 -230.5t185 -80.5q107 0 173.5 83t66.5 243q0 135 -44.5 209.5t-99.5 98 t-102 23.5q-61 0 -115 -31t-89 -108t-35 -207z" />
<glyph unicode="r" horiz-adv-x="797" d="M131 0v1090h275v-189h4q57 106 119 161.5t180 55.5q17 0 55 -4v-291q-25 4 -82 4q-264 0 -264 -260v-567h-287z" />
<glyph unicode="s" d="M61 348h295q0 -160 238 -160q98 0 140 36t42 77q0 59 -119.5 89.5t-248 60.5t-218.5 97t-90 206q0 89 41.5 171.5t142 137.5t257.5 55q463 0 489 -360h-280q-11 65 -49 104t-144 39q-176 0 -176 -106q0 -54 120 -85t248 -60t221 -98t93 -206q0 -145 -78 -229t-184.5 -115 t-214.5 -31q-215 0 -366.5 88t-158.5 289z" />
<glyph unicode="t" horiz-adv-x="682" d="M20 885v205h148v294h287v-294h178v-205h-178v-592q0 -53 18.5 -70.5t99.5 -17.5q18 0 60 4v-217q-90 -4 -135 -4h-37q-119 0 -183 28.5t-87 79t-23 127.5v662h-148z" />
<glyph unicode="u" horiz-adv-x="1251" d="M135 373v717h287v-676q0 -201 186 -201q87 0 154 58.5t67 189.5v629h287v-1090h-274v154h-4q-51 -89 -136 -136t-196 -47q-80 0 -148.5 24.5t-118 73t-77 126t-27.5 178.5z" />
<glyph unicode="v" d="M27 1090h319l225 -803h4l232 803h305l-393 -1090h-301z" />
<glyph unicode="w" horiz-adv-x="1593" d="M20 1090h306l170 -783h4l153 783h289l164 -783h4l170 783h295l-313 -1090h-295l-170 795h-4l-170 -795h-295z" />
<glyph unicode="x" d="M31 0l370 555l-356 535h348l185 -318l180 318h338l-359 -535l371 -555h-354l-189 328l-188 -328h-346z" />
<glyph unicode="y" d="M20 1090h320l233 -803h5l223 803h303l-375 -1072q-52 -157 -90.5 -246.5t-77.5 -133.5t-96 -60t-158 -16q-47 0 -129 4v229q24 -4 55 -4q87 0 129 29.5t60 134.5z" />
<glyph unicode="z" horiz-adv-x="1024" d="M41 0v223l559 637h-520v230h883v-236l-551 -618h571v-236h-942z" />
<glyph unicode="{" horiz-adv-x="797" d="M98 444v189q65 0 129 36t64 119v410q0 69 25.5 122.5t68 89t92 52.5t101.5 17h170v-181h-93q-49 0 -73.5 -19t-32.5 -48.5t-8 -67.5v-401q-10 -79 -51 -127.5t-90.5 -69t-92.5 -24.5v-4q44 -4 93 -25t90 -69.5t51 -127.5v-401q0 -59 23 -97t91 -38h93v-180h-170 q-68 0 -134.5 31.5t-109.5 94.5t-43 154v410q0 83 -64 119t-129 36z" />
<glyph unicode="|" horiz-adv-x="573" d="M172 -39v1548h229v-1548h-229z" />
<glyph unicode="}" horiz-adv-x="797" d="M49 -221h92q69 0 92 37t23 98v401q10 81 50.5 128.5t90 68.5t92.5 25v4q-74 7 -147 57t-86 164v401q0 62 -22.5 98.5t-92.5 36.5h-92v181h170q54 0 102.5 -17t91.5 -52.5t68 -89t25 -122.5v-410q0 -83 64 -119t128 -36v-189q-64 0 -128 -36t-64 -119v-410q0 -91 -43 -154 t-109.5 -94.5t-134.5 -31.5h-170v180z" />
<glyph unicode="~" horiz-adv-x="1196" d="M125 518q92 176 256 176q82 0 227 -65q20 -9 70.5 -32t83 -33.5t55.5 -10.5q53 0 92.5 38t87.5 111l74 -184q-58 -83 -115.5 -129.5t-140.5 -46.5q-50 0 -97.5 17t-111.5 51q-132 73 -235 73q-106 0 -172 -149z" />
<glyph unicode="&#xa1;" horiz-adv-x="682" d="M184 -6l82 688h152l82 -688v-375h-316v375zM193 801v289h299v-289h-299z" />
<glyph unicode="&#xa2;" d="M70 514q0 181 54.5 316.5t172 211.5t295.5 76q42 0 92 -6l49 174h107l-58 -201q78 -27 139 -74t102.5 -126t49.5 -185h-291q-18 96 -69 140l-178 -625q19 -8 51 -8q68 0 111 34.5t63 78.5t20 77h291q-4 -49 -27.5 -119t-80 -141.5t-153.5 -118.5t-237 -47q-62 0 -104 9 l-63 -222h-107l70 246q-112 41 -178.5 124t-93.5 184t-27 202zM365 561q0 -219 77 -297l174 613h-24q-122 0 -174.5 -95.5t-52.5 -220.5z" />
<glyph unicode="&#xa3;" d="M57 657v123h119q-29 63 -49 112t-27.5 88.5t-7.5 90.5q0 60 26.5 129.5t85.5 131t154 100t224 38.5q122 0 231.5 -42.5t183.5 -148t78 -282.5h-268q-12 82 -31.5 133t-64.5 81t-131 30q-71 0 -117 -31.5t-65 -75t-19 -81.5q0 -32 17 -81t81 -192h293v-123h-244 q11 -66 11 -108q0 -125 -88 -227q-30 -37 -121 -111l4 -4q133 53 231 53q72 0 146 -22q80 -29 108 -29q51 0 107 22.5t100 51.5l84 -224q-151 -92 -311 -92q-39 0 -98.5 11.5t-100.5 25.5q-128 45 -199 45q-39 0 -80 -13t-143 -59l-110 199q22 8 79 55.5t102.5 112 t45.5 131.5q0 40 -15 94.5t-32 87.5h-189z" />
<glyph unicode="&#xa4;" d="M-6 291l201 201q-64 103 -64 239q0 66 18 128.5t46 107.5l-201 200l135 136l201 -201q108 67 239 67q139 0 240 -67l201 201l135 -136l-201 -200q68 -105 68 -236q0 -68 -18.5 -130t-49.5 -109l201 -201l-135 -135l-201 200q-101 -67 -240 -67q-131 0 -239 67l-201 -200z M360 731q0 -97 58 -164t151 -67q94 0 153.5 66t59.5 165q0 98 -59 162.5t-154 64.5q-61 0 -109 -29.5t-74 -81.5t-26 -116z" />
<glyph unicode="&#xa5;" d="M-18 1430h307l295 -603l282 603h291l-307 -601h274v-122h-338l-77 -154h415v-123h-417v-430h-261v430h-415v123h415l-81 154h-334v122h268z" />
<glyph unicode="&#xa6;" horiz-adv-x="573" d="M172 -39v594h229v-594h-229zM172 915v594h229v-594h-229z" />
<glyph unicode="&#xa7;" d="M70 614q0 88 52 155t138 116q-106 97 -106 237q0 96 49 180.5t143 135.5t221 51q107 0 198 -35t150.5 -119.5t65.5 -220.5h-260q-5 76 -44.5 117t-115.5 41q-45 0 -78.5 -17t-51 -44t-17.5 -54q0 -34 19 -61t59 -47l331 -166q78 -40 131 -82t84 -103t31 -149 q0 -56 -49.5 -144t-145.5 -131q50 -40 88.5 -105.5t38.5 -156.5q0 -123 -62 -212t-162 -133t-218 -44q-167 0 -262 68.5t-130.5 155t-37.5 159.5h270q9 -73 48.5 -119.5t132.5 -46.5q82 0 114.5 48t32.5 98q0 49 -29.5 78.5t-91.5 60.5l-313 160q-119 60 -171 130.5 t-52 198.5zM311 666q0 -44 24.5 -74t70.5 -53l321 -172q88 48 88 135q0 43 -33 74t-84 57l-299 151q-40 -14 -64 -52.5t-24 -65.5z" />
<glyph unicode="&#xa8;" horiz-adv-x="682" d="M12 1257v236h258v-236h-258zM412 1257v236h258v-236h-258z" />
<glyph unicode="&#xa9;" horiz-adv-x="1509" d="M-23 737q0 179 62 323t172 245t249.5 152.5t295.5 51.5t296 -51.5t249 -152.5t171 -245t62 -323q0 -177 -61.5 -321.5t-172 -247t-250 -155t-294.5 -52.5q-154 0 -293.5 52t-251 155t-173 247.5t-61.5 321.5zM201 737q0 -175 73.5 -310.5t201 -210.5t280.5 -75v-2 q151 0 278 75t202 212t75 311q0 173 -75 309t-202 210.5t-278 74.5q-113 0 -214 -42t-178 -121t-120 -190.5t-43 -240.5zM360 743q0 95 29 176t84.5 141t135 93t173.5 33q92 0 169 -35.5t127.5 -107t66.5 -171.5h-176q-13 68 -64.5 102t-122.5 34q-98 0 -154.5 -70.5 t-56.5 -189.5q0 -73 27.5 -136.5t76.5 -99t111 -35.5q78 0 127.5 36.5t55.5 107.5h184q-16 -101 -68.5 -173.5t-131.5 -110.5t-167 -38q-126 0 -223 58.5t-150 161t-53 224.5z" />
<glyph unicode="&#xaa;" horiz-adv-x="758" d="M45 1012q0 91 57.5 145.5t151.5 67.5l168 22q65 9 65 47q0 70 -122 70q-62 0 -85.5 -23.5t-29.5 -60.5h-178q10 93 54.5 144t109.5 68t151 17q62 0 126 -15.5t109.5 -58t45.5 -116.5v-354q0 -90 43 -101v-26h-201q-11 33 -16 77q-45 -43 -95 -68.5t-135 -25.5 q-56 0 -106 20.5t-81.5 63t-31.5 107.5zM68 565v164h614v-164h-614zM238 1022q0 -38 26 -57t58 -19q65 0 115 36.5t50 92.5v82q-33 -22 -127 -35q-60 -9 -91 -30t-31 -70z" />
<glyph unicode="&#xab;" d="M180 451v245l342 295v-237l-205 -181l205 -180v-237zM616 451v245l342 295v-237l-204 -181l204 -180v-237z" />
<glyph unicode="&#xac;" horiz-adv-x="1196" d="M82 629v229h1032v-637h-229v408h-803z" />
<glyph unicode="&#xad;" horiz-adv-x="682" d="M55 440v267h572v-267h-572z" />
<glyph unicode="&#xae;" horiz-adv-x="1509" d="M-23 735q0 178 62 322.5t171.5 246t250.5 153.5t295 52q153 0 293.5 -52t249 -152t171 -246t62.5 -324q0 -177 -63 -323.5t-170.5 -245.5t-248.5 -152t-294 -53q-154 0 -295 52.5t-250 153.5t-171.5 246t-62.5 322zM201 735q0 -173 73.5 -308.5t201 -210.5t280.5 -75v-2 q151 0 277 75t201 211.5t75 309.5t-75 309t-201.5 210.5t-276.5 74.5q-113 0 -214 -42t-178 -121t-120 -190.5t-43 -240.5zM449 319v834h311q170 0 256 -57.5t86 -194.5q0 -109 -54.5 -159.5t-146.5 -57.5l213 -365h-211l-192 351h-84v-351h-178zM627 811h157q67 0 97 21.5 t30 87.5q0 57 -44 74.5t-115 17.5h-125v-201z" />
<glyph unicode="&#xaf;" horiz-adv-x="682" d="M-12 1237v152h706v-152h-706z" />
<glyph unicode="&#xb0;" horiz-adv-x="819" d="M117 1165q0 121 86 207t207 86q81 0 147 -39t105.5 -106t39.5 -148t-39.5 -147.5t-107 -106t-145.5 -39.5q-121 0 -207 86t-86 207zM231 1165q0 -72 53 -125t126 -53q74 0 126 53t52 125q0 48 -23.5 88.5t-65.5 65t-89 24.5q-48 0 -90 -24.5t-65.5 -65t-23.5 -88.5z" />
<glyph unicode="&#xb1;" horiz-adv-x="1196" d="M82 0v229h1032v-229h-1032zM82 551v229h401v256h230v-256h401v-229h-401v-258h-230v258h-401z" />
<glyph unicode="&#xb2;" horiz-adv-x="682" d="M18 580q8 102 47.5 182t163.5 164q115 78 153.5 107.5t61.5 65t23 85.5q0 43 -31.5 75.5t-89.5 32.5q-84 0 -109.5 -44t-27.5 -105h-180q0 185 100.5 248t208.5 63q91 0 164.5 -32.5t116.5 -95.5t43 -148q0 -102 -51.5 -169.5t-129.5 -115.5q-157 -96 -198 -145h381v-168 h-646z" />
<glyph unicode="&#xb3;" horiz-adv-x="682" d="M16 846h185h-2q0 -137 137 -137q131 0 131 127q0 76 -55.5 98t-147.5 22v131h31q41 0 71.5 5.5t54 30t23.5 73.5q0 104 -110 104q-81 0 -104 -41.5t-23 -84.5h-174q0 83 34.5 146t105 98.5t173.5 35.5q114 0 203.5 -58t89.5 -186q0 -63 -33.5 -106t-79.5 -62v-4 q46 -11 94 -58t48 -144q0 -62 -23.5 -113t-66 -89t-101 -58.5t-131.5 -20.5q-118 0 -224 57.5t-106 233.5z" />
<glyph unicode="&#xb4;" horiz-adv-x="682" d="M221 1237l193 299h315l-301 -299h-207z" />
<glyph unicode="&#xb5;" horiz-adv-x="1251" d="M135 -424v1514h287v-676q0 -201 186 -201q87 0 154 58.5t67 189.5v629h287v-1090h-274v154h-4q-48 -86 -119 -134.5t-135 -48.5q-58 0 -94 12t-68 42v-449h-287z" />
<glyph unicode="&#xb6;" d="M-16 1065q0 139 63 221t174 115t262 33h621v-1825h-230v1651h-206v-1651h-230v1102q-105 0 -190 24t-145 71.5t-89.5 111.5t-29.5 147z" />
<glyph unicode="&#xb8;" horiz-adv-x="682" d="M12 -416l45 99q105 -33 158 -33q37 0 66.5 21.5t29.5 58.5q0 34 -22.5 53.5t-57.5 19.5q-29 0 -81 -16l-44 41l113 172h121l-78 -113q32 9 62 9q37 0 77.5 -14.5t70.5 -50.5t30 -95q0 -57 -32 -104t-90 -73t-132 -26q-55 0 -100.5 9.5t-135.5 41.5z" />
<glyph unicode="&#xb9;" horiz-adv-x="682" d="M53 1176v127h27q121 0 174 45.5t57 105.5h174v-874h-206v596h-226z" />
<glyph unicode="&#xba;" horiz-adv-x="748" d="M12 1165q0 60 21 121.5t64.5 112t113.5 80.5t164 30q95 0 164.5 -30t113.5 -81t64 -110t20 -123q0 -86 -38 -164t-120.5 -129t-203.5 -51t-203.5 51t-121 129t-38.5 164zM68 565v164h614v-164h-614zM213 1165q0 -84 43.5 -140t118.5 -56t118.5 56t43.5 140 q0 56 -19.5 100t-56 70.5t-86.5 26.5q-76 0 -119 -56t-43 -141z" />
<glyph unicode="&#xbb;" d="M180 156v237l205 180l-205 181v237l342 -295v-245zM616 156v237l205 180l-205 181v237l342 -295v-245z" />
<glyph unicode="&#xbc;" horiz-adv-x="1708" d="M53 1176v127h27q121 0 174 45.5t57 105.5h174v-874h-206v596h-226zM279 -39l876 1493h160l-875 -1493h-161zM897 184v152l348 532h221v-542h103v-142h-103v-184h-194v184h-375zM1044 322h236q0 128 2 256t2 118h-4z" />
<glyph unicode="&#xbd;" horiz-adv-x="1708" d="M53 1176v127h27q121 0 174 45.5t57 105.5h174v-874h-206v596h-226zM279 -39l876 1493h160l-875 -1493h-161zM981 0q6 100 46.5 181t164.5 165q104 71 148.5 105t67 69.5t22.5 83.5q0 42 -31.5 75.5t-89.5 33.5q-85 0 -109 -42t-29 -108h-180q0 184 99.5 247.5t209.5 63.5 q91 0 165 -33t116.5 -96t42.5 -147q0 -177 -180 -285q-157 -94 -199 -145h381v-168h-645z" />
<glyph unicode="&#xbe;" horiz-adv-x="1708" d="M33 846h184h-2q0 -137 137 -137q131 0 131 127q0 77 -55 98.5t-147 21.5v131h30q41 0 72 5.5t54.5 30t23.5 73.5q0 104 -111 104q-81 0 -104 -41.5t-23 -84.5h-174q0 128 79.5 204t233.5 76q114 0 203.5 -58t89.5 -186q0 -63 -33 -106t-79 -62v-4q45 -11 93 -58t48 -144 q0 -62 -23.5 -113t-66 -89t-101 -58.5t-131.5 -20.5q-118 0 -223.5 57.5t-105.5 233.5zM369 -39l876 1493h160l-875 -1493h-161zM965 184v152l348 532h221v-542h102v-142h-102v-184h-195v184h-374zM1110 326h229q0 126 2 251t2 111h-4z" />
<glyph unicode="&#xbf;" horiz-adv-x="1251" d="M113 37q0 117 59.5 201t187.5 176q73 52 99 98.5t26 151.5h271q0 -110 -13.5 -173.5t-58 -120t-137.5 -122.5q-127 -87 -127 -203q0 -75 30 -120.5t75 -64t93 -18.5q86 0 132.5 36t64 84.5t25.5 115.5v2h288q0 -125 -43 -219t-115 -151t-158 -83t-175 -26q-96 0 -214 30 t-214 127.5t-96 278.5zM465 801v289h299v-289h-299z" />
<glyph unicode="&#xc0;" horiz-adv-x="1479" d="M41 0l524 1470h355l518 -1470h-334l-94 303h-543l-102 -303h-324zM549 557h375l-183 582h-4zM352 1917h315l193 -299h-207z" />
<glyph unicode="&#xc1;" horiz-adv-x="1479" d="M41 0l524 1470h355l518 -1470h-334l-94 303h-543l-102 -303h-324zM549 557h375l-183 582h-4zM620 1618l193 299h315l-301 -299h-207z" />
<glyph unicode="&#xc2;" horiz-adv-x="1479" d="M41 0l524 1470h355l518 -1470h-334l-94 303h-543l-102 -303h-324zM549 557h375l-183 582h-4zM379 1618l233 299h256l233 -299h-231l-131 168l-129 -168h-231z" />
<glyph unicode="&#xc3;" horiz-adv-x="1479" d="M41 0l524 1470h355l518 -1470h-334l-94 303h-543l-102 -303h-324zM549 557h375l-183 582h-4zM364 1630q19 97 60 156q69 96 188 96q32 0 66 -10t81 -29q94 -35 127 -35q75 0 97 82h133q-14 -86 -63.5 -165.5t-159.5 -79.5q-57 0 -156 32q-77 26 -99.5 33.5t-45.5 7.5 q-46 0 -69 -29t-28 -59h-131z" />
<glyph unicode="&#xc4;" horiz-adv-x="1479" d="M41 0l524 1470h355l518 -1470h-334l-94 303h-543l-102 -303h-324zM549 557h375l-183 582h-4zM411 1638v236h258v-236h-258zM811 1638v236h258v-236h-258z" />
<glyph unicode="&#xc5;" horiz-adv-x="1479" d="M41 0l524 1470h355l518 -1470h-334l-94 303h-543l-102 -303h-324zM549 557h375l-183 582h-4zM520 1757q0 62 32.5 110t84 75.5t104.5 27.5q39 0 79.5 -16t71 -43t50.5 -66.5t20 -87.5q0 -92 -69.5 -152.5t-151.5 -60.5q-53 0 -104.5 27.5t-84 75.5t-32.5 110zM635 1757 q0 -44 31 -75t75 -31q43 0 75 31t32 75q0 45 -32 76t-75 31q-44 0 -75 -31t-31 -76z" />
<glyph unicode="&#xc6;" horiz-adv-x="2048" d="M10 0l537 1470h1392v-260h-759v-309h684v-260h-684v-381h774v-260h-1075v313h-441l-106 -313h-322zM518 555h361v655h-134z" />
<glyph unicode="&#xc7;" horiz-adv-x="1479" d="M90 733q0 185 51 333t143.5 246.5t214.5 147.5t267 49q157 0 277.5 -48.5t196 -126t115.5 -167.5t46 -178h-307q-29 107 -94.5 180.5t-231.5 73.5q-142 0 -253.5 -117.5t-111.5 -396.5q0 -136 38.5 -251t120 -183t206.5 -68q128 0 213.5 71.5t112.5 205.5h307 q-33 -166 -113.5 -286.5t-214 -188.5t-311.5 -68q-198 0 -349.5 88t-237 263t-85.5 421zM452 -416l45 99q105 -33 158 -33q37 0 66.5 21.5t29.5 58.5q0 34 -22.5 53.5t-57.5 19.5q-29 0 -81 -16l-44 41l113 172h121l-78 -113q32 9 62 9q37 0 77.5 -14.5t70.5 -50.5t30 -95 q0 -57 -32 -104t-90 -73t-132 -26q-55 0 -100.5 9.5t-135.5 41.5z" />
<glyph unicode="&#xc8;" horiz-adv-x="1366" d="M156 0v1470h1081v-260h-780v-309h717v-260h-717v-381h815v-260h-1116zM295 1917h315l193 -299h-207z" />
<glyph unicode="&#xc9;" horiz-adv-x="1366" d="M156 0v1470h1081v-260h-780v-309h717v-260h-717v-381h815v-260h-1116zM563 1618l193 299h315l-301 -299h-207z" />
<glyph unicode="&#xca;" horiz-adv-x="1366" d="M156 0v1470h1081v-260h-780v-309h717v-260h-717v-381h815v-260h-1116zM322 1618l233 299h256l233 -299h-231l-131 168l-129 -168h-231z" />
<glyph unicode="&#xcb;" horiz-adv-x="1366" d="M156 0v1470h1081v-260h-780v-309h717v-260h-717v-381h815v-260h-1116zM354 1638v236h258v-236h-258zM754 1638v236h258v-236h-258z" />
<glyph unicode="&#xcc;" horiz-adv-x="569" d="M131 0v1470h307v-1470h-307zM-102 1917h315l193 -299h-207z" />
<glyph unicode="&#xcd;" horiz-adv-x="569" d="M131 0v1470h307v-1470h-307zM166 1618l193 299h315l-301 -299h-207z" />
<glyph unicode="&#xce;" horiz-adv-x="569" d="M131 0v1470h307v-1470h-307zM-75 1618l233 299h256l233 -299h-231l-131 168l-129 -168h-231z" />
<glyph unicode="&#xcf;" horiz-adv-x="569" d="M131 0v1470h307v-1470h-307zM-43 1638v236h258v-236h-258zM357 1638v236h258v-236h-258z" />
<glyph unicode="&#xd0;" horiz-adv-x="1479" d="M-10 647v254h166v569h649q229 0 362.5 -109t184.5 -266t51 -325q0 -129 -29 -261.5t-99 -249t-190.5 -188t-291.5 -71.5h-637v647h-166zM457 254h299q174 0 254 144t80 350q0 198 -53 303t-126.5 135.5t-158.5 30.5h-295v-316h340v-254h-340v-393z" />
<glyph unicode="&#xd1;" horiz-adv-x="1479" d="M141 0v1470h324l584 -1024h4v1024h286v-1470h-307l-600 1049h-4v-1049h-287zM364 1630q19 97 60 156q69 96 188 96q32 0 66 -10t81 -29q94 -35 127 -35q75 0 97 82h133q-14 -86 -63.5 -165.5t-159.5 -79.5q-57 0 -156 32q-77 26 -99.5 33.5t-45.5 7.5q-46 0 -69 -29 t-28 -59h-131z" />
<glyph unicode="&#xd2;" horiz-adv-x="1593" d="M90 735q0 313 124.5 485.5t284 230.5t298.5 58q97 0 210 -27.5t227.5 -108t191.5 -239t77 -399.5t-76.5 -398.5t-191 -238t-228 -109t-210.5 -28.5q-139 0 -298.5 58t-284 230.5t-124.5 485.5zM397 735q0 -276 122 -395t278 -119q97 0 187 46.5t151 162t61 305.5 q0 149 -36.5 250.5t-95 158t-128 81t-139.5 24.5t-138.5 -24t-128 -82t-96.5 -160.5t-37 -247.5zM410 1917h315l193 -299h-207z" />
<glyph unicode="&#xd3;" horiz-adv-x="1593" d="M90 735q0 313 124.5 485.5t284 230.5t298.5 58q97 0 210 -27.5t227.5 -108t191.5 -239t77 -399.5t-76.5 -398.5t-191 -238t-228 -109t-210.5 -28.5q-139 0 -298.5 58t-284 230.5t-124.5 485.5zM397 735q0 -276 122 -395t278 -119q97 0 187 46.5t151 162t61 305.5 q0 149 -36.5 250.5t-95 158t-128 81t-139.5 24.5t-138.5 -24t-128 -82t-96.5 -160.5t-37 -247.5zM678 1618l193 299h315l-301 -299h-207z" />
<glyph unicode="&#xd4;" horiz-adv-x="1593" d="M90 735q0 313 124.5 485.5t284 230.5t298.5 58q97 0 210 -27.5t227.5 -108t191.5 -239t77 -399.5t-76.5 -398.5t-191 -238t-228 -109t-210.5 -28.5q-139 0 -298.5 58t-284 230.5t-124.5 485.5zM397 735q0 -276 122 -395t278 -119q97 0 187 46.5t151 162t61 305.5 q0 149 -36.5 250.5t-95 158t-128 81t-139.5 24.5t-138.5 -24t-128 -82t-96.5 -160.5t-37 -247.5zM437 1618l233 299h256l233 -299h-231l-131 168l-129 -168h-231z" />
<glyph unicode="&#xd5;" horiz-adv-x="1593" d="M90 735q0 313 124.5 485.5t284 230.5t298.5 58q97 0 210 -27.5t227.5 -108t191.5 -239t77 -399.5t-76.5 -398.5t-191 -238t-228 -109t-210.5 -28.5q-139 0 -298.5 58t-284 230.5t-124.5 485.5zM397 735q0 -276 122 -395t278 -119q97 0 187 46.5t151 162t61 305.5 q0 149 -36.5 250.5t-95 158t-128 81t-139.5 24.5t-138.5 -24t-128 -82t-96.5 -160.5t-37 -247.5zM422 1630q19 97 60 156q69 96 188 96q32 0 66 -10t81 -29q94 -35 127 -35q75 0 97 82h133q-14 -86 -63.5 -165.5t-159.5 -79.5q-57 0 -156 32q-77 26 -99.5 33.5t-45.5 7.5 q-46 0 -69 -29t-28 -59h-131z" />
<glyph unicode="&#xd6;" horiz-adv-x="1593" d="M90 735q0 313 124.5 485.5t284 230.5t298.5 58q97 0 210 -27.5t227.5 -108t191.5 -239t77 -399.5t-76.5 -398.5t-191 -238t-228 -109t-210.5 -28.5q-139 0 -298.5 58t-284 230.5t-124.5 485.5zM397 735q0 -276 122 -395t278 -119q97 0 187 46.5t151 162t61 305.5 q0 149 -36.5 250.5t-95 158t-128 81t-139.5 24.5t-138.5 -24t-128 -82t-96.5 -160.5t-37 -247.5zM469 1638v236h258v-236h-258zM869 1638v236h258v-236h-258z" />
<glyph unicode="&#xd7;" horiz-adv-x="1196" d="M82 164l354 354l-354 354l162 162l354 -354l354 354l162 -162l-354 -354l356 -354l-164 -162l-354 354l-352 -354z" />
<glyph unicode="&#xd8;" horiz-adv-x="1593" d="M68 23l174 190q-152 195 -152 522q0 313 124.5 485.5t284 230.5t298.5 58q65 0 144.5 -13.5t168 -51.5t162.5 -101l166 183l86 -78l-172 -188q151 -196 151 -525q0 -241 -76.5 -398.5t-191 -238t-228 -109t-210.5 -28.5q-112 0 -240 37t-235 131l-168 -184zM397 735 q0 -174 56 -289l622 682q-109 121 -278 121q-70 0 -138.5 -24t-128 -82t-96.5 -160.5t-37 -247.5zM516 344q58 -65 132.5 -94t148.5 -29q97 0 187 46.5t151 162t61 305.5q0 183 -57 291z" />
<glyph unicode="&#xd9;" horiz-adv-x="1479" d="M147 496v974h314v-954q0 -145 74 -220t188 -75q297 0 297 281v968h313v-956q0 -282 -158 -417.5t-446 -135.5q-126 0 -251.5 39.5t-215.5 138.5q-40 44 -64.5 99t-36 116.5t-14.5 141.5zM352 1917h315l193 -299h-207z" />
<glyph unicode="&#xda;" horiz-adv-x="1479" d="M147 496v974h314v-954q0 -145 74 -220t188 -75q297 0 297 281v968h313v-956q0 -282 -158 -417.5t-446 -135.5q-126 0 -251.5 39.5t-215.5 138.5q-40 44 -64.5 99t-36 116.5t-14.5 141.5zM620 1618l193 299h315l-301 -299h-207z" />
<glyph unicode="&#xdb;" horiz-adv-x="1479" d="M147 496v974h314v-954q0 -145 74 -220t188 -75q297 0 297 281v968h313v-956q0 -282 -158 -417.5t-446 -135.5q-126 0 -251.5 39.5t-215.5 138.5q-40 44 -64.5 99t-36 116.5t-14.5 141.5zM379 1618l233 299h256l233 -299h-231l-131 168l-129 -168h-231z" />
<glyph unicode="&#xdc;" horiz-adv-x="1479" d="M147 496v974h314v-954q0 -145 74 -220t188 -75q297 0 297 281v968h313v-956q0 -282 -158 -417.5t-446 -135.5q-126 0 -251.5 39.5t-215.5 138.5q-40 44 -64.5 99t-36 116.5t-14.5 141.5zM411 1638v236h258v-236h-258zM811 1638v236h258v-236h-258z" />
<glyph unicode="&#xdd;" horiz-adv-x="1366" d="M31 1470h362l305 -639l291 639h348l-491 -919v-551h-307v555zM563 1618l193 299h315l-301 -299h-207z" />
<glyph unicode="&#xde;" horiz-adv-x="1366" d="M156 0v1470h307v-200h364q140 0 243.5 -58.5t158.5 -166t55 -250.5q0 -64 -20 -140t-72 -153t-144.5 -126.5t-232.5 -49.5h-352v-326h-307zM463 580h285q149 0 189 69.5t40 159.5q0 108 -63.5 157.5t-206.5 49.5h-244v-436z" />
<glyph unicode="&#xdf;" horiz-adv-x="1251" d="M141 0v1104q0 80 28.5 149.5t88 125.5t150.5 87t210 31q70 0 149 -13t156 -53t128 -121.5t51 -213.5q0 -88 -42 -154.5t-108 -99.5q144 -63 189 -160t45 -213q0 -126 -49.5 -240t-162 -186t-290.5 -72q-41 0 -113 13v225q21 -2 60 -2q268 0 268 254q0 105 -47 158.5 t-109.5 69t-156.5 22.5v198q68 2 116.5 12t80.5 48.5t32 117.5q0 116 -68 148.5t-139 32.5q-70 0 -125 -43t-55 -140v-1085h-287z" />
<glyph unicode="&#xe0;" d="M59 289q0 103 40.5 176.5t112 115.5t165.5 56l258 39q100 13 100 86q0 79 -53 103t-135 24q-96 0 -132 -43.5t-44 -108.5h-277q15 155 86 240t170.5 113t231.5 28q69 0 141.5 -13t139 -46.5t110 -97t43.5 -158.5v-590q0 -61 8 -96.5t22 -51.5t33 -22v-43h-309 q-19 61 -27 129q-46 -48 -87 -79.5t-108 -55t-157 -23.5q-137 0 -234.5 80.5t-97.5 237.5zM346 307q0 -68 41 -99.5t92 -31.5q65 0 124 26.5t95.5 75t36.5 113.5v139q-46 -36 -194 -59q-97 -16 -146 -49.5t-49 -114.5zM182 1536h315l193 -299h-207z" />
<glyph unicode="&#xe1;" d="M59 289q0 103 40.5 176.5t112 115.5t165.5 56l258 39q100 13 100 86q0 79 -53 103t-135 24q-96 0 -132 -43.5t-44 -108.5h-277q15 155 86 240t170.5 113t231.5 28q69 0 141.5 -13t139 -46.5t110 -97t43.5 -158.5v-590q0 -61 8 -96.5t22 -51.5t33 -22v-43h-309 q-19 61 -27 129q-46 -48 -87 -79.5t-108 -55t-157 -23.5q-137 0 -234.5 80.5t-97.5 237.5zM346 307q0 -68 41 -99.5t92 -31.5q65 0 124 26.5t95.5 75t36.5 113.5v139q-46 -36 -194 -59q-97 -16 -146 -49.5t-49 -114.5zM450 1237l193 299h315l-301 -299h-207z" />
<glyph unicode="&#xe2;" d="M59 289q0 103 40.5 176.5t112 115.5t165.5 56l258 39q100 13 100 86q0 79 -53 103t-135 24q-96 0 -132 -43.5t-44 -108.5h-277q15 155 86 240t170.5 113t231.5 28q69 0 141.5 -13t139 -46.5t110 -97t43.5 -158.5v-590q0 -61 8 -96.5t22 -51.5t33 -22v-43h-309 q-19 61 -27 129q-46 -48 -87 -79.5t-108 -55t-157 -23.5q-137 0 -234.5 80.5t-97.5 237.5zM346 307q0 -68 41 -99.5t92 -31.5q65 0 124 26.5t95.5 75t36.5 113.5v139q-46 -36 -194 -59q-97 -16 -146 -49.5t-49 -114.5zM209 1237l233 299h256l233 -299h-231l-131 168 l-129 -168h-231z" />
<glyph unicode="&#xe3;" d="M59 289q0 103 40.5 176.5t112 115.5t165.5 56l258 39q100 13 100 86q0 79 -53 103t-135 24q-96 0 -132 -43.5t-44 -108.5h-277q15 155 86 240t170.5 113t231.5 28q69 0 141.5 -13t139 -46.5t110 -97t43.5 -158.5v-590q0 -61 8 -96.5t22 -51.5t33 -22v-43h-309 q-19 61 -27 129q-46 -48 -87 -79.5t-108 -55t-157 -23.5q-137 0 -234.5 80.5t-97.5 237.5zM346 307q0 -68 41 -99.5t92 -31.5q65 0 124 26.5t95.5 75t36.5 113.5v139q-46 -36 -194 -59q-97 -16 -146 -49.5t-49 -114.5zM194 1249q19 97 60 156q69 96 188 96q32 0 66 -10 t81 -29q94 -35 127 -35q75 0 97 82h133q-14 -86 -63.5 -165.5t-159.5 -79.5q-57 0 -156 32q-77 26 -99.5 33.5t-45.5 7.5q-46 0 -69 -29t-28 -59h-131z" />
<glyph unicode="&#xe4;" d="M59 289q0 103 40.5 176.5t112 115.5t165.5 56l258 39q100 13 100 86q0 79 -53 103t-135 24q-96 0 -132 -43.5t-44 -108.5h-277q15 155 86 240t170.5 113t231.5 28q69 0 141.5 -13t139 -46.5t110 -97t43.5 -158.5v-590q0 -61 8 -96.5t22 -51.5t33 -22v-43h-309 q-19 61 -27 129q-46 -48 -87 -79.5t-108 -55t-157 -23.5q-137 0 -234.5 80.5t-97.5 237.5zM346 307q0 -68 41 -99.5t92 -31.5q65 0 124 26.5t95.5 75t36.5 113.5v139q-46 -36 -194 -59q-97 -16 -146 -49.5t-49 -114.5zM241 1257v236h258v-236h-258zM641 1257v236h258v-236 h-258z" />
<glyph unicode="&#xe5;" d="M59 289q0 103 40.5 176.5t112 115.5t165.5 56l258 39q100 13 100 86q0 79 -53 103t-135 24q-96 0 -132 -43.5t-44 -108.5h-277q15 155 86 240t170.5 113t231.5 28q69 0 141.5 -13t139 -46.5t110 -97t43.5 -158.5v-590q0 -61 8 -96.5t22 -51.5t33 -22v-43h-309 q-19 61 -27 129q-46 -48 -87 -79.5t-108 -55t-157 -23.5q-137 0 -234.5 80.5t-97.5 237.5zM346 307q0 -68 41 -99.5t92 -31.5q65 0 124 26.5t95.5 75t36.5 113.5v139q-46 -36 -194 -59q-97 -16 -146 -49.5t-49 -114.5zM350 1376q0 62 32.5 110t84 75.5t104.5 27.5 q39 0 79.5 -16t71 -43t50.5 -66.5t20 -87.5q0 -92 -69.5 -152.5t-151.5 -60.5q-53 0 -104.5 27.5t-84 75.5t-32.5 110zM465 1376q0 -44 31 -75t75 -31q43 0 75 31t32 75q0 45 -32 76t-75 31q-44 0 -75 -31t-31 -76z" />
<glyph unicode="&#xe6;" horiz-adv-x="1821" d="M59 305q0 111 65.5 198.5t211.5 112.5l268 46q99 16 123.5 34.5t24.5 71.5q0 51 -35 86t-166 35q-103 0 -137.5 -48t-34.5 -106h-281q18 220 154 301.5t338 81.5q119 0 200 -36t136 -85q69 54 139 86t180 35q94 0 181 -26.5t162 -91.5t122 -184t47 -298v-51h-747 q4 -44 12.5 -84.5t34 -83t78 -70.5t131.5 -28q63 0 115.5 31t68.5 87h295q-36 -124 -111.5 -201.5t-170 -112t-197.5 -34.5q-123 0 -202 25.5t-120 60t-86 90.5q-33 -54 -95 -93.5t-143 -61t-174 -21.5q-69 0 -133 13.5t-123 49.5t-95 103.5t-36 167.5zM346 303 q0 -62 44 -94.5t118 -32.5q56 0 111.5 28.5t90.5 76.5t35 104v137q-23 -20 -66 -33t-147 -28q-67 -11 -104.5 -24t-59.5 -45t-22 -89zM1018 653h444q-7 82 -41.5 134t-82 74t-97.5 22q-197 0 -223 -230z" />
<glyph unicode="&#xe7;" d="M70 514q0 181 54.5 316.5t172 211.5t295.5 76q100 0 206 -37t184.5 -131t90.5 -250h-291q-12 70 -55.5 123.5t-134.5 53.5q-122 0 -174.5 -95.5t-52.5 -220.5q0 -92 12 -164.5t60.5 -131t148.5 -58.5q68 0 111 34.5t63 78.5t20 77h291q-4 -49 -27.5 -119t-80 -141.5 t-153.5 -118.5t-237 -47q-189 0 -302 82.5t-157 205t-44 255.5zM282 -416l45 99q105 -33 158 -33q37 0 66.5 21.5t29.5 58.5q0 34 -22.5 53.5t-57.5 19.5q-29 0 -81 -16l-44 41l113 172h121l-78 -113q32 9 62 9q37 0 77.5 -14.5t70.5 -50.5t30 -95q0 -57 -32 -104t-90 -73 t-132 -26q-55 0 -100.5 9.5t-135.5 41.5z" />
<glyph unicode="&#xe8;" d="M47 567q0 102 37 226t153 224.5t332 100.5q94 0 181 -26.5t162 -91.5t122 -184t47 -298v-51h-747q4 -44 12.5 -84.5t34 -83t78 -70.5t131.5 -28q64 0 116 31.5t68 86.5h295q-36 -124 -111.5 -201.5t-170 -112t-197.5 -34.5q-121 0 -218 31.5t-170.5 102t-114 185.5 t-40.5 277zM342 653h444q-7 82 -41.5 134t-82 74t-97.5 22q-197 0 -223 -230zM182 1536h315l193 -299h-207z" />
<glyph unicode="&#xe9;" d="M47 567q0 102 37 226t153 224.5t332 100.5q94 0 181 -26.5t162 -91.5t122 -184t47 -298v-51h-747q4 -44 12.5 -84.5t34 -83t78 -70.5t131.5 -28q64 0 116 31.5t68 86.5h295q-36 -124 -111.5 -201.5t-170 -112t-197.5 -34.5q-121 0 -218 31.5t-170.5 102t-114 185.5 t-40.5 277zM342 653h444q-7 82 -41.5 134t-82 74t-97.5 22q-197 0 -223 -230zM450 1237l193 299h315l-301 -299h-207z" />
<glyph unicode="&#xea;" d="M47 567q0 102 37 226t153 224.5t332 100.5q94 0 181 -26.5t162 -91.5t122 -184t47 -298v-51h-747q4 -44 12.5 -84.5t34 -83t78 -70.5t131.5 -28q64 0 116 31.5t68 86.5h295q-36 -124 -111.5 -201.5t-170 -112t-197.5 -34.5q-121 0 -218 31.5t-170.5 102t-114 185.5 t-40.5 277zM342 653h444q-7 82 -41.5 134t-82 74t-97.5 22q-197 0 -223 -230zM209 1237l233 299h256l233 -299h-231l-131 168l-129 -168h-231z" />
<glyph unicode="&#xeb;" d="M47 567q0 102 37 226t153 224.5t332 100.5q94 0 181 -26.5t162 -91.5t122 -184t47 -298v-51h-747q4 -44 12.5 -84.5t34 -83t78 -70.5t131.5 -28q64 0 116 31.5t68 86.5h295q-36 -124 -111.5 -201.5t-170 -112t-197.5 -34.5q-121 0 -218 31.5t-170.5 102t-114 185.5 t-40.5 277zM342 653h444q-7 82 -41.5 134t-82 74t-97.5 22q-197 0 -223 -230zM241 1257v236h258v-236h-258zM641 1257v236h258v-236h-258z" />
<glyph unicode="&#xec;" horiz-adv-x="569" d="M141 0v1090h287v-1090h-287zM-102 1536h315l193 -299h-207z" />
<glyph unicode="&#xed;" horiz-adv-x="569" d="M141 0v1090h287v-1090h-287zM166 1237l193 299h315l-301 -299h-207z" />
<glyph unicode="&#xee;" horiz-adv-x="569" d="M141 0v1090h287v-1090h-287zM-75 1237l233 299h256l233 -299h-231l-131 168l-129 -168h-231z" />
<glyph unicode="&#xef;" horiz-adv-x="569" d="M141 0v1090h287v-1090h-287zM-43 1257v236h258v-236h-258zM357 1257v236h258v-236h-258z" />
<glyph unicode="&#xf0;" horiz-adv-x="1251" d="M70 543q0 152 63.5 271.5t179.5 188t262 68.5q58 0 129.5 -23t122.5 -90l4 5q-57 125 -198 247l-221 -96l-129 107l221 96q-88 64 -150 92l221 100q83 -33 162 -90l209 90l127 -106l-207 -90q88 -82 160 -191t115 -242.5t43 -275.5q0 -219 -80.5 -361.5t-207 -207 t-263.5 -64.5q-144 0 -273 58t-209.5 186.5t-80.5 327.5zM365 535q0 -156 70.5 -239t193.5 -83q109 0 167.5 61t75.5 134.5t17 134.5q0 39 -11.5 86.5t-39.5 93t-80.5 76t-130.5 30.5q-99 0 -158 -53t-81.5 -121t-22.5 -120z" />
<glyph unicode="&#xf1;" horiz-adv-x="1251" d="M133 0v1090h275v-160h4q47 78 120 133t207 55q107 0 194 -42t136 -123.5t49 -198.5v-754h-287v662q0 91 -33 153t-153 62q-100 0 -162.5 -66t-62.5 -186v-625h-287zM250 1249q19 97 60 156q69 96 188 96q32 0 66 -10t81 -29q94 -35 127 -35q75 0 97 82h133 q-14 -86 -63.5 -165.5t-159.5 -79.5q-57 0 -156 32q-77 26 -99.5 33.5t-45.5 7.5q-46 0 -69 -29t-28 -59h-131z" />
<glyph unicode="&#xf2;" horiz-adv-x="1251" d="M70 545q0 188 76 317.5t203 192.5t278 63t278 -63t203 -192.5t76 -317.5q0 -145 -44.5 -253.5t-122 -179t-177.5 -106t-213 -35.5q-112 0 -213 36t-178.5 107.5t-121.5 180.5t-44 250zM365 545q0 -135 57 -233.5t205 -98.5t205 98.5t57 233.5q0 136 -57 234t-205 98 t-205 -98t-57 -234zM238 1536h315l193 -299h-207z" />
<glyph unicode="&#xf3;" horiz-adv-x="1251" d="M70 545q0 188 76 317.5t203 192.5t278 63t278 -63t203 -192.5t76 -317.5q0 -145 -44.5 -253.5t-122 -179t-177.5 -106t-213 -35.5q-112 0 -213 36t-178.5 107.5t-121.5 180.5t-44 250zM365 545q0 -135 57 -233.5t205 -98.5t205 98.5t57 233.5q0 136 -57 234t-205 98 t-205 -98t-57 -234zM506 1237l193 299h315l-301 -299h-207z" />
<glyph unicode="&#xf4;" horiz-adv-x="1251" d="M70 545q0 188 76 317.5t203 192.5t278 63t278 -63t203 -192.5t76 -317.5q0 -145 -44.5 -253.5t-122 -179t-177.5 -106t-213 -35.5q-112 0 -213 36t-178.5 107.5t-121.5 180.5t-44 250zM365 545q0 -135 57 -233.5t205 -98.5t205 98.5t57 233.5q0 136 -57 234t-205 98 t-205 -98t-57 -234zM265 1237l233 299h256l233 -299h-231l-131 168l-129 -168h-231z" />
<glyph unicode="&#xf5;" horiz-adv-x="1251" d="M70 545q0 188 76 317.5t203 192.5t278 63t278 -63t203 -192.5t76 -317.5q0 -145 -44.5 -253.5t-122 -179t-177.5 -106t-213 -35.5q-112 0 -213 36t-178.5 107.5t-121.5 180.5t-44 250zM365 545q0 -135 57 -233.5t205 -98.5t205 98.5t57 233.5q0 136 -57 234t-205 98 t-205 -98t-57 -234zM250 1249q19 97 60 156q69 96 188 96q32 0 66 -10t81 -29q94 -35 127 -35q75 0 97 82h133q-14 -86 -63.5 -165.5t-159.5 -79.5q-57 0 -156 32q-77 26 -99.5 33.5t-45.5 7.5q-46 0 -69 -29t-28 -59h-131z" />
<glyph unicode="&#xf6;" horiz-adv-x="1251" d="M70 545q0 188 76 317.5t203 192.5t278 63t278 -63t203 -192.5t76 -317.5q0 -145 -44.5 -253.5t-122 -179t-177.5 -106t-213 -35.5q-112 0 -213 36t-178.5 107.5t-121.5 180.5t-44 250zM365 545q0 -135 57 -233.5t205 -98.5t205 98.5t57 233.5q0 136 -57 234t-205 98 t-205 -98t-57 -234zM297 1257v236h258v-236h-258zM697 1257v236h258v-236h-258z" />
<glyph unicode="&#xf7;" horiz-adv-x="1196" d="M82 403v230h1032v-230h-1032zM418 94q0 75 54.5 128.5t127.5 53.5q47 0 88.5 -25t66.5 -66.5t25 -90.5q0 -45 -25 -86.5t-67 -67.5t-86 -26q-50 0 -91.5 24t-67 66t-25.5 90zM418 940q0 75 54.5 128.5t127.5 53.5q47 0 88.5 -24.5t66.5 -66.5t25 -91q0 -45 -25 -86.5 t-67 -67.5t-86 -26q-50 0 -91.5 24t-67 66t-25.5 90z" />
<glyph unicode="&#xf8;" horiz-adv-x="1251" d="M45 0l150 158q-125 151 -125 387q0 188 76 317.5t203 192.5t278 63q103 0 197.5 -30.5t168.5 -90.5l142 150l71 -66l-145 -151q123 -149 123 -385q0 -145 -44.5 -253.5t-122 -179t-177.5 -106t-213 -35.5q-217 0 -363 119l-141 -149zM365 545q0 -104 30 -178l416 438 q-69 72 -184 72q-148 0 -205 -98t-57 -234zM446 283q63 -70 181 -70q148 0 205 98.5t57 233.5q0 107 -29 174z" />
<glyph unicode="&#xf9;" horiz-adv-x="1251" d="M135 373v717h287v-676q0 -201 186 -201q87 0 154 58.5t67 189.5v629h287v-1090h-274v154h-4q-51 -89 -136 -136t-196 -47q-80 0 -148.5 24.5t-118 73t-77 126t-27.5 178.5zM238 1536h315l193 -299h-207z" />
<glyph unicode="&#xfa;" horiz-adv-x="1251" d="M135 373v717h287v-676q0 -201 186 -201q87 0 154 58.5t67 189.5v629h287v-1090h-274v154h-4q-51 -89 -136 -136t-196 -47q-80 0 -148.5 24.5t-118 73t-77 126t-27.5 178.5zM506 1237l193 299h315l-301 -299h-207z" />
<glyph unicode="&#xfb;" horiz-adv-x="1251" d="M135 373v717h287v-676q0 -201 186 -201q87 0 154 58.5t67 189.5v629h287v-1090h-274v154h-4q-51 -89 -136 -136t-196 -47q-80 0 -148.5 24.5t-118 73t-77 126t-27.5 178.5zM265 1237l233 299h256l233 -299h-231l-131 168l-129 -168h-231z" />
<glyph unicode="&#xfc;" horiz-adv-x="1251" d="M135 373v717h287v-676q0 -201 186 -201q87 0 154 58.5t67 189.5v629h287v-1090h-274v154h-4q-51 -89 -136 -136t-196 -47q-80 0 -148.5 24.5t-118 73t-77 126t-27.5 178.5zM297 1257v236h258v-236h-258zM697 1257v236h258v-236h-258z" />
<glyph unicode="&#xfd;" d="M20 1090h320l233 -803h5l223 803h303l-375 -1072q-52 -157 -90.5 -246.5t-77.5 -133.5t-96 -60t-158 -16q-47 0 -129 4v229q24 -4 55 -4q87 0 129 29.5t60 134.5zM450 1237l193 299h315l-301 -299h-207z" />
<glyph unicode="&#xfe;" horiz-adv-x="1251" d="M127 -426v1896h287v-520h4q108 168 313 168q123 0 226.5 -63t165 -189.5t61.5 -308.5q0 -156 -48.5 -289.5t-153 -215t-257.5 -81.5q-91 0 -153.5 27.5t-94.5 61.5t-59 79h-4v-565h-287zM401 520q0 -133 62 -223t190 -90q85 0 138 52t75.5 128.5t22.5 149.5q0 92 -24 167 t-79 120.5t-141 45.5q-93 0 -147 -48.5t-75.5 -125.5t-21.5 -176z" />
<glyph unicode="&#xff;" d="M20 1090h320l233 -803h5l223 803h303l-375 -1072q-52 -157 -90.5 -246.5t-77.5 -133.5t-96 -60t-158 -16q-47 0 -129 4v229q24 -4 55 -4q87 0 129 29.5t60 134.5zM241 1257v236h258v-236h-258zM641 1257v236h258v-236h-258z" />
<glyph unicode="&#x131;" horiz-adv-x="569" d="M141 0v1090h287v-1090h-287z" />
<glyph unicode="&#x152;" horiz-adv-x="2048" d="M76 735q0 196 60.5 372.5t198 289t353.5 112.5q125 0 194 -35t124 -90v86h962v-260h-682v-309h635v-260h-635v-381h682v-260h-962v102q-68 -76 -136.5 -108.5t-189.5 -32.5q-102 0 -204.5 37t-194.5 127t-148.5 242.5t-56.5 367.5zM377 719q0 -121 35.5 -236.5 t112 -191.5t194.5 -76q120 0 193 58t73 128v666q0 99 -80.5 143.5t-173.5 44.5q-180 0 -267 -147.5t-87 -388.5z" />
<glyph unicode="&#x153;" horiz-adv-x="1933" d="M70 545q0 188 76 317.5t203 192.5t278 63q70 0 143.5 -21t132.5 -58.5t98 -84.5q75 77 151.5 120.5t203.5 43.5q94 0 181 -26.5t162 -91.5t122 -184t47 -298v-51h-748q4 -44 12.5 -84.5t35 -83t78 -70.5t130.5 -28q64 0 116.5 31.5t68.5 86.5h294q-36 -125 -111 -202 t-170.5 -111.5t-197.5 -34.5q-109 0 -187.5 23t-122 55t-83.5 74q-121 -152 -356 -152q-112 0 -213 36t-178.5 107.5t-121.5 180.5t-44 250zM365 545q0 -135 57 -233.5t205 -98.5t205 98.5t57 233.5q0 136 -57 234t-205 98t-205 -98t-57 -234zM1128 653h445q-8 82 -42 134 t-81.5 74t-97.5 22q-197 0 -224 -230z" />
<glyph unicode="&#x178;" horiz-adv-x="1366" d="M31 1470h362l305 -639l291 639h348l-491 -919v-551h-307v555zM354 1638v236h258v-236h-258zM754 1638v236h258v-236h-258z" />
<glyph unicode="&#x2c6;" horiz-adv-x="682" d="M-20 1237l233 299h256l233 -299h-231l-131 168l-129 -168h-231z" />
<glyph unicode="&#x2da;" horiz-adv-x="682" d="M121 1376q0 62 32.5 110t84 75.5t104.5 27.5q39 0 79.5 -16t71 -43t50.5 -66.5t20 -87.5q0 -92 -69.5 -152.5t-151.5 -60.5q-53 0 -104.5 27.5t-84 75.5t-32.5 110zM236 1376q0 -44 31 -75t75 -31q43 0 75 31t32 75q0 45 -32 76t-75 31q-44 0 -75 -31t-31 -76z" />
<glyph unicode="&#x2dc;" horiz-adv-x="682" d="M-35 1249q19 97 60 156q69 96 188 96q32 0 66 -10t81 -29q94 -35 127 -35q75 0 97 82h133q-14 -86 -63.5 -165.5t-159.5 -79.5q-57 0 -156 32q-77 26 -99.5 33.5t-45.5 7.5q-46 0 -69 -29t-28 -59h-131z" />
<glyph unicode="&#x2000;" horiz-adv-x="985" />
<glyph unicode="&#x2001;" horiz-adv-x="1970" />
<glyph unicode="&#x2002;" horiz-adv-x="985" />
<glyph unicode="&#x2003;" horiz-adv-x="1970" />
<glyph unicode="&#x2004;" horiz-adv-x="656" />
<glyph unicode="&#x2005;" horiz-adv-x="492" />
<glyph unicode="&#x2006;" horiz-adv-x="328" />
<glyph unicode="&#x2007;" horiz-adv-x="328" />
<glyph unicode="&#x2008;" horiz-adv-x="246" />
<glyph unicode="&#x2009;" horiz-adv-x="394" />
<glyph unicode="&#x200a;" horiz-adv-x="109" />
<glyph unicode="&#x2010;" horiz-adv-x="682" d="M55 440v267h572v-267h-572z" />
<glyph unicode="&#x2011;" horiz-adv-x="682" d="M55 440v267h572v-267h-572z" />
<glyph unicode="&#x2012;" horiz-adv-x="682" d="M55 440v267h572v-267h-572z" />
<glyph unicode="&#x2013;" d="M0 465v217h1139v-217h-1139z" />
<glyph unicode="&#x2014;" horiz-adv-x="2048" d="M0 465v217h2048v-217h-2048z" />
<glyph unicode="&#x2018;" horiz-adv-x="569" d="M141 930v209q0 290 281 350v-105q-91 -28 -119.5 -74.5t-32.5 -119.5h158v-260h-287z" />
<glyph unicode="&#x2019;" horiz-adv-x="569" d="M141 1210v260h287v-208q0 -291 -281 -351v105q91 30 119.5 76t32.5 118h-158z" />
<glyph unicode="&#x201a;" horiz-adv-x="569" d="M141 0v260h287v-209q0 -120 -43 -193t-104.5 -107.5t-133.5 -49.5v104q91 30 119.5 76t32.5 119h-158z" />
<glyph unicode="&#x201c;" horiz-adv-x="1024" d="M131 930v209q0 290 281 350v-105q-64 -20 -96 -49.5t-43 -65.5t-13 -79h158v-260h-287zM606 930v209q0 290 281 350v-105q-91 -28 -119.5 -74.5t-32.5 -119.5h158v-260h-287z" />
<glyph unicode="&#x201d;" horiz-adv-x="1024" d="M131 1210v260h287v-208q0 -291 -281 -351v105q62 19 95.5 49t44 66t12.5 79h-158zM606 1210v260h287v-208q0 -291 -281 -351v105q91 30 119.5 76t32.5 118h-158z" />
<glyph unicode="&#x201e;" horiz-adv-x="1024" d="M131 0v260h287v-209q0 -120 -43 -193t-104.5 -107.5t-133.5 -49.5v104q62 19 95.5 49.5t44 66.5t12.5 79h-158zM606 0v260h287v-209q0 -120 -43 -193t-104.5 -107.5t-133.5 -49.5v104q91 30 119.5 76t32.5 119h-158z" />
<glyph unicode="&#x2022;" horiz-adv-x="717" d="M20 737q0 92 45.5 170t122.5 122t170 44q71 0 133 -26.5t107 -70.5t71.5 -105.5t26.5 -133.5q0 -93 -45.5 -171t-123.5 -123.5t-169 -45.5q-141 0 -239.5 98.5t-98.5 241.5z" />
<glyph unicode="&#x2026;" horiz-adv-x="2048" d="M188 0v299h308v-299h-308zM870 0v299h308v-299h-308zM1552 0v299h308v-299h-308z" />
<glyph unicode="&#x202f;" horiz-adv-x="394" />
<glyph unicode="&#x2039;" horiz-adv-x="682" d="M170 451v245l342 295v-237l-205 -181l205 -180v-237z" />
<glyph unicode="&#x203a;" horiz-adv-x="682" d="M170 156v237l205 180l-205 181v237l342 -295v-245z" />
<glyph unicode="&#x205f;" horiz-adv-x="492" />
<glyph unicode="&#x2122;" horiz-adv-x="2048" d="M90 1296v174h698v-174h-235v-669h-229v669h-234zM948 627v843h314l192 -512l191 512h313v-843h-217v575h-4l-201 -575h-166l-201 575h-4v-575h-217z" />
<glyph unicode="&#xe000;" horiz-adv-x="1090" d="M0 1090h1090v-1090h-1090v1090z" />
<glyph unicode="&#xfb01;" horiz-adv-x="1251" d="M823 0v1090h287v-1090h-287zM823 1219v266h287v-266h-287zM20 885v205h158v88q0 108 38.5 178.5t108.5 101.5t173 31q99 0 147 -4v-232h-80q-69 0 -84.5 -23.5t-15.5 -96.5v-43h186v-205h-186v-885h-287v885h-158z" />
<glyph unicode="&#xfb02;" horiz-adv-x="1251" d="M823 0v1470h287v-1470h-287zM20 885v205h158v88q0 108 38.5 178.5t108.5 101.5t173 31q99 0 147 -4v-232h-80q-69 0 -84.5 -23.5t-15.5 -96.5v-43h186v-205h-186v-885h-287v885h-158z" />
<glyph unicode="&#xfb03;" horiz-adv-x="1933" d="M1505 0v1090h287v-1090h-287zM1505 1219v266h287v-266h-287zM702 885v205h158v88q0 108 38.5 178.5t108.5 101.5t173 31q99 0 147 -4v-232h-80q-69 0 -84.5 -23.5t-15.5 -96.5v-43h186v-205h-186v-885h-287v885h-158zM20 885v205h158v88q0 108 38.5 178.5t108.5 101.5 t173 31q99 0 147 -4v-232h-80q-69 0 -84.5 -23.5t-15.5 -96.5v-43h186v-205h-186v-885h-287v885h-158z" />
<glyph unicode="&#xfb04;" horiz-adv-x="1933" d="M1505 0v1470h287v-1470h-287zM702 885v205h158v88q0 108 38.5 178.5t108.5 101.5t173 31q99 0 147 -4v-232h-80q-69 0 -84.5 -23.5t-15.5 -96.5v-43h186v-205h-186v-885h-287v885h-158zM20 885v205h158v88q0 108 38.5 178.5t108.5 101.5t173 31q99 0 147 -4v-232h-80 q-69 0 -84.5 -23.5t-15.5 -96.5v-43h186v-205h-186v-885h-287v885h-158z" />
</font>
</defs>
</svg>
