<svg id="Layer_1" data-name="Layer 1" xmlns="http://www.w3.org/2000/svg" xmlns:xlink="http://www.w3.org/1999/xlink" viewBox="0 0 39.57 18.43"><defs><style>.cls-1{fill:url(#linear-gradient);}</style><linearGradient id="linear-gradient" y1="8" x2="36.86" y2="8" gradientUnits="userSpaceOnUse"><stop offset="0" stop-color="#ccc"/><stop offset="1" stop-color="#515354"/></linearGradient></defs><title>todos</title><path class="cls-1" d="M28.86,0a7.61,7.61,0,0,0-6.29,3.07,10.2,10.2,0,0,1-7.69,4.21h-2c-0.57,0-3.1,0-3.71-.08A5.42,5.42,0,0,1,6.54,5.83a4.61,4.61,0,0,0-3.07-1.3,3.47,3.47,0,0,0,0,6.94,4.62,4.62,0,0,0,3.11-1.41A5.1,5.1,0,0,1,9.21,8.69c0.61-.1,3.14,0,3.71,0l2,0A10.49,10.49,0,0,1,22.59,13a7.59,7.59,0,0,0,6.28,3A8,8,0,0,0,28.86,0Z"/></svg>