<?xml version="1.0" encoding="utf-8"?>
<!-- Generator: Adobe Illustrator 17.0.0, SVG Export Plug-In . SVG Version: 6.00 Build 0)  -->
<!DOCTYPE svg PUBLIC "-//W3C//DTD SVG 1.1//EN" "http://www.w3.org/Graphics/SVG/1.1/DTD/svg11.dtd">
<svg version="1.1" id="Layer_1" xmlns="http://www.w3.org/2000/svg" xmlns:xlink="http://www.w3.org/1999/xlink" x="0px" y="0px"
	 width="145.275px" height="145.26px" viewBox="0 0 145.275 145.26" enable-background="new 0 0 145.275 145.26"
	 xml:space="preserve">
<path fill="#BE9857" d="M72.715,0c39.868,0.086,72.445,32.634,72.559,72.494c0.114,39.933-33.025,73.005-72.909,72.764
	C32.395,145.016-0.019,112.474,0,72.605C0.019,32.608,32.763-0.086,72.715,0z M72.78,143.089
	c38.839-0.221,70.461-31.946,70.339-70.569c-0.122-38.878-31.975-70.542-70.803-70.383C33.586,2.296,2.005,34.112,2.162,72.813
	C2.318,111.555,34.226,143.308,72.78,143.089z"/>
<path fill="#BE9857" d="M84.009,72.486c0.072,6.207-5.114,11.47-11.334,11.504c-6.115,0.033-11.28-4.999-11.407-11.113
	c-0.13-6.281,4.911-11.533,11.168-11.633C78.69,61.142,83.937,66.24,84.009,72.486z M81.861,72.658
	c0.023-5.005-4.098-9.195-9.111-9.261c-5.036-0.067-9.25,4.007-9.33,9.02c-0.082,5.157,4.114,9.435,9.242,9.421
	C77.654,81.824,81.838,77.648,81.861,72.658z"/>
<path fill="#BE9857" d="M72.645,67.955c2.567,0.007,4.604,2.13,4.544,4.735c-0.062,2.675-2.052,4.551-4.746,4.474
	c-2.475-0.071-4.444-2.066-4.461-4.519C67.965,70.113,70.117,67.948,72.645,67.955z M76.151,72.512
	c-1.641-1.154-2.742-2.485-3.472-2.306c-1.009,0.247-2.185,1.535-2.413,2.57c-0.128,0.581,1.508,2.184,2.347,2.182
	C73.581,74.956,74.547,73.695,76.151,72.512z"/>
</svg>
