<?xml version="1.0" encoding="utf-8"?>
<!-- Generator: Adobe Illustrator 17.0.0, SVG Export Plug-In . SVG Version: 6.00 Build 0)  -->
<!DOCTYPE svg PUBLIC "-//W3C//DTD SVG 1.1//EN" "http://www.w3.org/Graphics/SVG/1.1/DTD/svg11.dtd">
<svg version="1.1" id="Layer_1" xmlns="http://www.w3.org/2000/svg" xmlns:xlink="http://www.w3.org/1999/xlink" x="0px" y="0px"
	 width="156.917px" height="173.688px" viewBox="0 0 156.917 173.688" enable-background="new 0 0 156.917 173.688"
	 xml:space="preserve">
<g>
	<path fill="#BE9857" d="M56.434,73.287c10.455-10.699,20.59-21.071,31.037-31.761c2.772,2.7,5.306,5.388,8.097,7.774
		c1.052,0.9,2.713,1.589,4.073,1.552c15.403-0.421,27.449,5.758,35.005,19.077c7.617,13.426,6.986,27.268-1.762,40.032
		c-8.547,12.472-20.883,17.895-35.911,15.949c-20.659-2.674-34.546-20.568-32.51-41.497c0.228-2.344-0.302-3.894-2.008-5.37
		C60.463,77.321,58.635,75.408,56.434,73.287z M119.613,73.269c-3.948,3.626-7.838,7.073-11.543,10.709
		c-0.726,0.713-1.141,2.211-1.002,3.254c0.538,4.03-2.18,6.875-6.176,6.493c-1.136-0.109-2.638,0.389-3.489,1.15
		c-2.482,2.216-4.805,4.63-7.026,7.113c-1.662,1.858-2.904,1.675-4.587-0.02c-5.323-5.357-10.768-10.593-16.179-15.863
		c-0.716-0.697-1.508-1.315-2.446-2.128c-2.539,13.644,4.498,28.17,17.676,35.63c13.72,7.766,31.325,4.969,42.65-6.693
		c10.805-11.126,12.874-29.195,5.094-42.187c-7.525-12.565-22.309-19.081-31.617-17.071
		C106.805,59.798,112.783,66.085,119.613,73.269z M115.561,72.89c-0.303-0.587-0.379-0.9-0.575-1.092
		c-5.799-5.7-11.564-11.437-17.478-17.016c-0.743-0.701-2.394-0.996-3.439-0.735c-13.107,3.274-21.752,11.48-26.009,24.235
		c-0.351,1.052,0.201,2.927,1.011,3.761c4.916,5.055,10.025,9.924,15.08,14.844c1.305,1.27,2.649,2.501,3.997,3.77
		c2.861-2.837,5.545-5.405,8.089-8.104c0.488-0.518,0.654-1.577,0.581-2.349c-0.475-5,1.457-6.985,6.59-6.722
		c0.716,0.037,1.691-0.034,2.139-0.472C108.964,79.671,112.28,76.231,115.561,72.89z M65.402,78.709
		c4.565-14.608,14.273-23.266,27.719-27.051c-1.888-2.192-3.7-4.295-5.647-6.556c-9.236,9.455-18.255,18.688-27.132,27.776
		C62.027,74.822,63.54,76.564,65.402,78.709z"/>
</g>
<polygon fill="none" stroke="#BE9857" stroke-width="4" stroke-miterlimit="10" points="154.664,3.305 148.424,86.695 
	142.183,170.084 73.086,122.985 3.989,75.885 79.327,39.595 "/>
</svg>
