<?xml version="1.0" encoding="utf-8"?>
<!-- Generator: Adobe Illustrator 17.0.0, SVG Export Plug-In . SVG Version: 6.00 Build 0)  -->
<!DOCTYPE svg PUBLIC "-//W3C//DTD SVG 1.1//EN" "http://www.w3.org/Graphics/SVG/1.1/DTD/svg11.dtd">
<svg version="1.1" id="Layer_1" xmlns="http://www.w3.org/2000/svg" xmlns:xlink="http://www.w3.org/1999/xlink" x="0px" y="0px"
	 width="165.818px" height="185.205px" viewBox="0 0 165.818 185.205" enable-background="new 0 0 165.818 185.205"
	 xml:space="preserve">
<path fill="#BE9857" d="M0,185.143C0,129.743,0,74.647,0,19.291c20.806,0,41.471,0,62.686,0c-0.982-4.209-1.822-8.076-2.842-11.896
	c-0.15-0.561-1.148-0.896-1.754-1.335c-1.539-1.115-2.231-2.518-1.204-4.298c0.977-1.692,2.499-2.234,4.256-1.327
	c1.776,0.917,2.379,2.725,1.311,4.217c-1.321,1.844-0.878,3.458-0.402,5.253c0.798,3.007,0.671,7.163,2.62,8.71
	c1.964,1.558,5.983,0.612,9.101,0.614c29.343,0.023,58.685,0.013,88.028,0.013c1.169,0,2.338,0,3.95,0c0,1.186,0,2.219,0,3.252
	c0,52.993-0.026,105.987,0.068,158.98c0.005,3.053-0.908,3.735-3.831,3.731c-52.895-0.086-105.79-0.062-158.686-0.062
	C2.246,185.143,1.191,185.143,0,185.143z M67.427,39.678c-25.174,5.748-47.066,28.001-49.358,58.077
	c-2.262,29.688,16.288,53.646,34.771,61.853c3.723-7.32,7.508-14.622,11.116-22.01c0.546-1.117,0.546-2.686,0.311-3.956
	c-0.37-2.006,0.312-3.366,2.042-4.024c1.811-0.689,3.368,0.035,4.012,1.897c0.618,1.786,0.138,3.643-1.802,4.016
	c-2.025,0.39-2.684,1.674-3.43,3.174c-1.134,2.281-2.333,4.53-3.479,6.806c-2.493,4.951-4.97,9.909-7.445,14.847
	c26.449,14.387,67.563,7.211,85.994-27.711c17.796-33.719,1.314-69.274-19.724-82.32c-5.975,8.454-11.959,16.921-17.943,25.388
	c-0.383-0.263-0.766-0.525-1.148-0.788c2.977-4.247,5.952-8.496,8.931-12.741c3.022-4.307,6.048-8.611,9.06-12.9
	c-14.017-10.826-36.915-14.135-50.355-9.688c2.68,11.719,5.366,23.464,8.052,35.209c-0.435,0.096-0.871,0.192-1.307,0.287
	C72.972,63.343,70.218,51.593,67.427,39.678z M66.589,29.338c47.868-9.481,85.07,25.082,90.173,62.62
	c4.86,35.749-16.302,71.486-53.437,82.359c-36.693,10.744-75.583-8.396-89.951-44.339C6.237,112.127,6.054,93.917,13.044,76
	c9.406-24.11,27.193-39.188,52.037-46.179c-0.411-1.964-0.887-3.664-1.102-5.395c-0.325-2.618-1.581-3.425-4.272-3.406
	c-18.157,0.129-36.316,0.129-54.473,0.003c-2.861-0.02-3.604,0.803-3.6,3.628c0.082,51.725,0.076,103.451,0.012,155.176
	c-0.003,2.59,0.571,3.538,3.385,3.533c51.823-0.083,103.647-0.08,155.47-0.006c2.699,0.004,3.464-0.758,3.46-3.458
	c-0.074-51.823-0.077-103.647,0.006-155.47c0.004-2.812-0.94-3.393-3.532-3.387c-30.819,0.076-61.638,0.049-92.458,0.049
	c-0.948,0-1.896,0-3.011,0c0.041,0.885-0.006,1.372,0.097,1.825C65.534,24.997,66.047,27.073,66.589,29.338z M67.091,31.261
	c0.286,1.33,0.664,2.462,0.748,3.616c0.172,2.356,1.235,2.946,3.491,2.374c1.98-0.502,4.059-0.717,6.107-0.834
	c21.926-1.255,40.341,6.114,55.175,22.408c19.746,21.69,21.953,57.012,4.979,80.978c-19.341,27.309-52.563,36.348-83.132,22.616
	c-27.112-12.178-43.325-44.306-36.665-73.146c5.668-24.542,20.424-41.183,44.217-49.684c1.626-0.581,3.274-1.099,5.036-1.688
	c-0.55-2.27-1.043-4.302-1.533-6.326c-35.568,8.096-62.721,44.387-54.503,85.38c8.353,41.668,49.19,66.809,90.712,56.338
	c38.961-9.825,62.824-51.767,51.466-90.749C141.234,41.511,100.182,23.11,67.091,31.261z M67.215,130.173
	c-0.717,1.241-1.48,1.991-1.457,2.715c0.016,0.517,1.342,1.536,1.637,1.395c0.73-0.348,1.495-1.167,1.669-1.929
	C69.165,131.914,68.145,131.219,67.215,130.173z M59.678,5.855c0.844-1.312,1.665-2.045,1.678-2.793
	c0.009-0.525-1.069-1.47-1.683-1.488c-0.559-0.017-1.614,0.965-1.611,1.503C58.066,3.813,58.862,4.545,59.678,5.855z"/>
<path fill="#BE9857" d="M82.92,121.117c-10.321,0.097-18.778-8.219-18.823-18.512c-0.045-10.177,8.19-18.54,18.372-18.656
	c10.503-0.119,19.029,8.256,18.985,18.648C101.411,112.759,93.143,121.021,82.92,121.117z M65.624,102.488
	c-0.023,9.535,7.603,17.208,17.114,17.218c9.476,0.011,17.239-7.716,17.234-17.153c-0.005-9.473-7.719-17.206-17.169-17.209
	C73.263,85.341,65.647,92.942,65.624,102.488z"/>
<path fill="#BE9857" d="M39.838,135.151c7.491-5.879,14.982-11.758,22.799-17.893c-0.242,2.256-17.454,16.397-22.126,18.71
	C40.287,135.696,40.063,135.423,39.838,135.151z"/>
<path fill="#BE9857" d="M66.969,82.496c-2.891-1.92-17.255-20.836-17.249-23.501c6.24,7.967,12.098,15.448,17.957,22.929
	C67.442,82.116,67.206,82.306,66.969,82.496z"/>
<path fill="#BE9857" d="M119.069,114.818c1.22-0.38,2.44-0.794,3.68-1.139c1.852-0.514,3.636-0.022,3.979,1.85
	c0.224,1.223-0.449,3.181-1.407,3.915c-1.423,1.092-3.189,0.489-4.237-1.202C120.401,117.141,119.767,116.009,119.069,114.818z
	 M123.803,119.128c0.856-1.117,1.699-1.757,1.781-2.483c0.054-0.485-1.094-1.619-1.492-1.529c-0.724,0.164-1.604,0.929-1.813,1.626
	C122.137,117.211,123.036,117.993,123.803,119.128z"/>
<path fill="#BE9857" d="M87.999,72.218c1.125-5.933,2.249-11.866,3.374-17.799c0.456,0.081,0.913,0.161,1.369,0.242
	c-1.135,5.931-2.27,11.863-3.405,17.795C88.891,72.376,88.445,72.297,87.999,72.218z"/>
<path fill="#BE9857" d="M79.617,151.266c0.311-6.106,0.621-12.211,0.932-18.317c0.447,0.02,0.893,0.04,1.34,0.06
	c-0.307,6.107-0.615,12.214-0.922,18.321C80.516,151.308,80.066,151.287,79.617,151.266z"/>
<path fill="#BE9857" d="M98.95,145.849c-1.565-4.09-3.13-8.181-4.694-12.271c0.408-0.159,0.815-0.318,1.223-0.477
	c1.596,4.087,3.191,8.175,4.787,12.262C99.827,145.526,99.389,145.687,98.95,145.849z"/>
<path fill="#BE9857" d="M109.395,126.473c1.7,2.055,3.399,4.11,5.099,6.165c-0.113,0.117-0.226,0.233-0.338,0.35
	c-1.934-1.844-3.868-3.687-5.802-5.531C108.701,127.128,109.048,126.801,109.395,126.473z"/>
<path fill="#BE9857" d="M113.652,84.155c2.292-1.322,4.584-2.644,6.876-3.966c0.24,0.415,0.481,0.83,0.721,1.245
	c-2.337,1.31-4.674,2.62-7.01,3.93C114.043,84.96,113.848,84.558,113.652,84.155z"/>
<path fill="#BE9857" d="M82.948,116.917c-8.025,0.11-14.569-6.162-14.685-14.075c-0.117-8.01,6.195-14.655,14.034-14.773
	c8.19-0.124,14.84,6.124,15.031,14.12C97.519,110.196,91.066,116.806,82.948,116.917z M83.069,89.483
	c-6.881-0.265-13.009,5.36-13.317,12.222c-0.334,7.45,5.307,13.664,12.571,13.846c7.168,0.18,13.16-5.303,13.508-12.36
	C96.191,95.889,90.493,89.769,83.069,89.483z"/>
</svg>
