<?xml version="1.0" encoding="utf-8"?>
<!-- Generator: Adobe Illustrator 17.0.0, SVG Export Plug-In . SVG Version: 6.00 Build 0)  -->
<!DOCTYPE svg PUBLIC "-//W3C//DTD SVG 1.1//EN" "http://www.w3.org/Graphics/SVG/1.1/DTD/svg11.dtd">
<svg version="1.1" id="Layer_1" xmlns="http://www.w3.org/2000/svg" xmlns:xlink="http://www.w3.org/1999/xlink" x="0px" y="0px"
	 width="26px" height="26px" viewBox="0 0 26 26" enable-background="new 0 0 26 26" xml:space="preserve">
<g opacity="0.6">
	<path fill="#FFFFFF" d="M0,9.337c0,5.148,4.188,9.337,9.337,9.337c2.451,0,4.685-0.95,6.352-2.501l0.947,0.947
		c-0.23,0.327-0.354,0.716-0.354,1.125c0,0.524,0.204,1.017,0.575,1.388l5.794,5.794C23.021,25.796,23.514,26,24.038,26
		c0.524,0,1.017-0.204,1.388-0.575C25.796,25.055,26,24.562,26,24.038c0-0.524-0.204-1.017-0.575-1.388l-5.794-5.794
		c-0.371-0.371-0.863-0.575-1.388-0.575c-0.381,0-0.744,0.108-1.057,0.309l-0.96-0.96c1.519-1.661,2.447-3.871,2.447-6.294
		C18.673,4.188,14.485,0,9.337,0S0,4.188,0,9.337z M18.244,17.045c0.213,0,0.417,0.055,0.596,0.158l-1.637,1.637
		c-0.103-0.179-0.158-0.383-0.158-0.596c0-0.32,0.125-0.621,0.351-0.848C17.623,17.17,17.924,17.045,18.244,17.045z M17.714,19.409
		l1.696-1.696l5.159,5.159l-1.696,1.696L17.714,19.409z M24.038,25.237c-0.213,0-0.417-0.055-0.596-0.158l1.637-1.637
		c0.103,0.179,0.158,0.383,0.158,0.596c0,0.32-0.125,0.621-0.351,0.848C24.659,25.112,24.358,25.237,24.038,25.237z M0.763,9.337
		c0-4.727,3.846-8.573,8.573-8.573s8.573,3.846,8.573,8.573s-3.846,8.573-8.573,8.573S0.763,14.064,0.763,9.337z"/>
	<path fill="#FFFFFF" d="M1.628,9.337c0,4.25,3.458,7.708,7.708,7.708s7.708-3.458,7.708-7.708s-3.458-7.708-7.708-7.708
		S1.628,5.086,1.628,9.337z M2.391,9.337c0-3.83,3.116-6.945,6.945-6.945s6.945,3.116,6.945,6.945s-3.116,6.945-6.945,6.945
		S2.391,13.166,2.391,9.337z"/>
</g>
</svg>
