<svg id="Layer_1" data-name="Layer 1" xmlns="http://www.w3.org/2000/svg" viewBox="0 0 184.23 86.5"><defs><style>.cls-1{fill:#be9857;}</style></defs><title>lines-lines</title><path class="cls-1" d="M184.52,36H161.93L144.14,18.22H92.3L65.22,45.3a3.09,3.09,0,1,1-.58-0.58L92,17.4h52.52l17.8,17.79h29.85V36h-7.61Z"/><path class="cls-1" d="M60.36,59.56a3.08,3.08,0,0,1,4-.26L81.75,42l0.58,0.58L65,59.88A3.08,3.08,0,1,1,60.36,59.56Z"/><path class="cls-1" d="M184.23,25.07v0.82H167.37L148.17,6.7H81.57L14.2,74.06l-0.82.82L9.89,78.37a3.09,3.09,0,1,1-.58-0.58l2.91-2.91L13,74.06,81.23,5.87h67.29l19.19,19.19h16.53Z"/></svg>