<?xml version="1.0" encoding="utf-8"?>
<!-- Generator: Adobe Illustrator 17.0.0, SVG Export Plug-In . SVG Version: 6.00 Build 0)  -->
<!DOCTYPE svg PUBLIC "-//W3C//DTD SVG 1.1//EN" "http://www.w3.org/Graphics/SVG/1.1/DTD/svg11.dtd">
<svg version="1.1" id="Layer_1" xmlns="http://www.w3.org/2000/svg" xmlns:xlink="http://www.w3.org/1999/xlink" x="0px" y="0px"
	 width="50.5px" height="50.5px" viewBox="0 0 50.5 50.5" enable-background="new 0 0 50.5 50.5" xml:space="preserve">
<circle fill="none" stroke="#BE9857" stroke-width="0.5" stroke-miterlimit="10" cx="25.25" cy="25.25" r="25"/>
<g>
	<path fill="#FFFFFF" d="M25.25,44.75c-10.752,0-19.5-8.748-19.5-19.5s8.748-19.5,19.5-19.5c10.752,0,19.5,8.748,19.5,19.5
		S36.002,44.75,25.25,44.75z"/>
	<path fill="#BE9857" d="M25.25,7.25c9.925,0,18,8.075,18,18s-8.075,18-18,18s-18-8.075-18-18S15.325,7.25,25.25,7.25 M25.25,4.25
		c-11.598,0-21,9.402-21,21c0,11.598,9.402,21,21,21c11.598,0,21-9.402,21-21C46.25,13.652,36.848,4.25,25.25,4.25L25.25,4.25z"/>
</g>
<path opacity="0.8" fill="#21282F" d="M17.817,15.25h14.866c1.412,0,2.567,1.045,2.567,2.567v14.866
	c0,1.522-1.155,2.567-2.567,2.567H17.817c-1.412,0-2.567-1.045-2.567-2.567V17.817C15.25,16.295,16.405,15.25,17.817,15.25
	L17.817,15.25z M29.819,17.472c-0.495,0-0.9,0.405-0.9,0.9v2.155c0,0.495,0.405,0.9,0.9,0.9h2.26c0.495,0,0.9-0.405,0.9-0.9v-2.155
	c0-0.496-0.405-0.9-0.9-0.9H29.819L29.819,17.472z M32.99,23.708h-1.76c0.167,0.544,0.257,1.12,0.257,1.716
	c0,3.327-2.784,6.023-6.217,6.023c-3.433,0-6.216-2.697-6.216-6.023c0-0.596,0.09-1.172,0.257-1.716h-1.837v8.448
	c0,0.437,0.358,0.795,0.795,0.795h13.927c0.437,0,0.795-0.358,0.795-0.795L32.99,23.708L32.99,23.708z M25.269,21.315
	c-2.218,0-4.017,1.742-4.017,3.892s1.798,3.892,4.017,3.892c2.218,0,4.017-1.742,4.017-3.892S27.487,21.315,25.269,21.315z"/>
</svg>
