<?xml version="1.0" encoding="utf-8"?>
<!-- Generator: Adobe Illustrator 17.0.0, SVG Export Plug-In . SVG Version: 6.00 Build 0)  -->
<!DOCTYPE svg PUBLIC "-//W3C//DTD SVG 1.1//EN" "http://www.w3.org/Graphics/SVG/1.1/DTD/svg11.dtd">
<svg version="1.1" id="Layer_1" xmlns="http://www.w3.org/2000/svg" xmlns:xlink="http://www.w3.org/1999/xlink" x="0px" y="0px"
	 width="50.5px" height="50.5px" viewBox="0 0 50.5 50.5" enable-background="new 0 0 50.5 50.5" xml:space="preserve">
<g opacity="0.8">
	<circle fill="none" stroke="#BE9857" stroke-width="0.5" stroke-miterlimit="10" cx="25.25" cy="25.25" r="25"/>
	<g>
		<path fill="#FFFFFF" d="M25.25,44.75c-10.752,0-19.5-8.748-19.5-19.5s8.748-19.5,19.5-19.5s19.5,8.748,19.5,19.5
			S36.002,44.75,25.25,44.75z"/>
		<path fill="#BE9857" d="M25.25,7.25c9.925,0,18,8.075,18,18s-8.075,18-18,18s-18-8.075-18-18S15.325,7.25,25.25,7.25 M25.25,4.25
			c-11.598,0-21,9.402-21,21c0,11.598,9.402,21,21,21c11.598,0,21-9.402,21-21C46.25,13.652,36.848,4.25,25.25,4.25L25.25,4.25z"/>
	</g>
</g>
<path id="YouTube_1_" opacity="0.8" fill="#21282F" d="M31.591,30.342h-1.207l0.006-0.701c0-0.312,0.256-0.567,0.569-0.567h0.077
	c0.313,0,0.57,0.255,0.57,0.567L31.591,30.342z M27.062,28.839c-0.306,0-0.557,0.206-0.557,0.458v3.411
	c0,0.252,0.251,0.457,0.557,0.457c0.308,0,0.558-0.205,0.558-0.457v-3.411C27.62,29.045,27.37,28.839,27.062,28.839z M34.417,26.932
	v6.489c0,1.556-1.35,2.83-2.999,2.83H19.083c-1.65,0-3-1.274-3-2.83v-6.489c0-1.556,1.349-2.83,3-2.83h12.334
	C33.067,24.101,34.417,25.375,34.417,26.932z M19.906,34.125l-0.001-6.835l1.529,0v-1.013l-4.076-0.006v0.996l1.272,0.004v6.854
	H19.906z M24.489,28.308h-1.275v3.65c0,0.528,0.032,0.792-0.002,0.885c-0.104,0.283-0.57,0.584-0.751,0.031
	c-0.031-0.097-0.004-0.389-0.004-0.891l-0.005-3.675h-1.268l0.004,3.617c0.001,0.554-0.012,0.968,0.004,1.156
	c0.031,0.332,0.02,0.718,0.328,0.939c0.573,0.413,1.673-0.062,1.948-0.652l-0.002,0.754l1.024,0.001L24.489,28.308L24.489,28.308z
	 M28.567,32.487l-0.003-3.038c-0.001-1.158-0.867-1.851-2.043-0.914l0.005-2.258l-1.273,0.002l-0.006,7.795l1.047-0.015l0.095-0.485
	C27.728,34.801,28.569,33.96,28.567,32.487z M32.557,32.085l-0.956,0.005c0,0.038-0.002,0.082-0.002,0.129v0.533
	c0,0.286-0.236,0.518-0.522,0.518h-0.187c-0.287,0-0.523-0.232-0.523-0.518v-0.059v-0.587V31.35h2.189v-0.824
	c0-0.602-0.015-1.204-0.065-1.548c-0.157-1.089-1.685-1.262-2.457-0.704c-0.242,0.174-0.427,0.407-0.535,0.72
	c-0.109,0.313-0.163,0.741-0.163,1.284v1.811C29.336,35.1,32.993,34.675,32.557,32.085z M27.654,22.251
	c0.066,0.16,0.168,0.289,0.307,0.387c0.137,0.096,0.312,0.145,0.522,0.145c0.184,0,0.347-0.05,0.488-0.152
	c0.141-0.102,0.26-0.254,0.358-0.457l-0.024,0.5h1.421v-6.043h-1.119v4.703c0,0.255-0.21,0.463-0.466,0.463
	c-0.255,0-0.465-0.209-0.465-0.463v-4.703h-1.167v4.076c0,0.519,0.01,0.865,0.025,1.041C27.548,21.922,27.588,22.089,27.654,22.251z
	 M23.347,18.838c0-0.58,0.048-1.033,0.144-1.36c0.097-0.325,0.271-0.587,0.522-0.784c0.251-0.198,0.572-0.297,0.963-0.297
	c0.329,0,0.61,0.065,0.846,0.191c0.236,0.127,0.419,0.292,0.545,0.496c0.129,0.204,0.216,0.414,0.263,0.629
	c0.048,0.218,0.071,0.546,0.071,0.99v1.528c0,0.561-0.022,0.973-0.066,1.235c-0.043,0.263-0.136,0.506-0.28,0.734
	c-0.142,0.226-0.325,0.395-0.547,0.503c-0.224,0.109-0.481,0.162-0.771,0.162c-0.324,0-0.597-0.045-0.822-0.138
	c-0.226-0.093-0.4-0.233-0.524-0.419c-0.125-0.186-0.214-0.413-0.267-0.678c-0.054-0.264-0.079-0.662-0.079-1.191L23.347,18.838
	L23.347,18.838z M24.46,21.239c0,0.342,0.255,0.622,0.565,0.622c0.31,0,0.564-0.279,0.564-0.622v-3.217
	c0-0.342-0.254-0.621-0.564-0.621c-0.31,0-0.565,0.279-0.565,0.621V21.239z M20.528,22.863h1.341l0.001-4.635l1.584-3.97h-1.466
	l-0.842,2.949l-0.854-2.957H18.84l1.685,3.981L20.528,22.863z"/>
</svg>
