<?xml version="1.0" encoding="utf-8"?>
<!-- Generator: Adobe Illustrator 17.0.0, SVG Export Plug-In . SVG Version: 6.00 Build 0)  -->
<!DOCTYPE svg PUBLIC "-//W3C//DTD SVG 1.1//EN" "http://www.w3.org/Graphics/SVG/1.1/DTD/svg11.dtd">
<svg version="1.1" id="Layer_1" xmlns="http://www.w3.org/2000/svg" xmlns:xlink="http://www.w3.org/1999/xlink" x="0px" y="0px"
	 width="50.5px" height="50.5px" viewBox="0 0 50.5 50.5" enable-background="new 0 0 50.5 50.5" xml:space="preserve">
<g opacity="0.8">
	<circle fill="none" stroke="#BE9857" stroke-width="0.5" stroke-miterlimit="10" cx="25.25" cy="25.25" r="25"/>
	<g>
		<path fill="#FFFFFF" d="M25.25,44.75c-10.752,0-19.5-8.748-19.5-19.5s8.748-19.5,19.5-19.5s19.5,8.748,19.5,19.5
			S36.002,44.75,25.25,44.75z"/>
		<path fill="#BE9857" d="M25.25,7.25c9.925,0,18,8.075,18,18s-8.075,18-18,18s-18-8.075-18-18S15.325,7.25,25.25,7.25 M25.25,4.25
			c-11.598,0-21,9.402-21,21c0,11.598,9.402,21,21,21c11.598,0,21-9.402,21-21C46.25,13.652,36.848,4.25,25.25,4.25L25.25,4.25z"/>
	</g>
</g>
<path id="LinkedIn_1_" opacity="0.8" fill="#21282F" d="M35.715,26.512v7.738h-4.486v-7.22c0-1.814-0.649-3.051-2.273-3.051
	c-1.24,0-1.977,0.834-2.302,1.641c-0.118,0.288-0.149,0.69-0.149,1.094v7.536h-4.488c0,0,0.06-12.228,0-13.495h4.487v1.913
	c-0.009,0.014-0.021,0.03-0.029,0.044h0.029v-0.044c0.596-0.918,1.661-2.23,4.044-2.23C33.502,20.438,35.715,22.367,35.715,26.512z
	 M17.324,14.25c-1.535,0-2.539,1.007-2.539,2.331c0,1.295,0.975,2.333,2.48,2.333h0.03c1.565,0,2.538-1.037,2.538-2.333
	C19.803,15.257,18.86,14.25,17.324,14.25z M15.051,34.25h4.486V20.755h-4.486V34.25z"/>
</svg>
