<?xml version="1.0" encoding="utf-8"?>
<!-- Generator: Adobe Illustrator 17.0.0, SVG Export Plug-In . SVG Version: 6.00 Build 0)  -->
<!DOCTYPE svg PUBLIC "-//W3C//DTD SVG 1.1//EN" "http://www.w3.org/Graphics/SVG/1.1/DTD/svg11.dtd">
<svg version="1.1" id="Layer_1" xmlns="http://www.w3.org/2000/svg" xmlns:xlink="http://www.w3.org/1999/xlink" x="0px" y="0px"
	 width="143.667px" height="23.957px" viewBox="0.001 0 143.667 23.957" enable-background="new 0.001 0 143.667 23.957"
	 xml:space="preserve">
<g enable-background="new    ">
	<path fill="#FFFFFF" d="M37.342,16.948h-2.085V6.954h5.729V8.69h-3.644v2.577h3.391v1.729h-3.391V16.948z"/>
	<path fill="#FFFFFF" d="M48.191,16.948l-0.28-0.978h-0.109c-0.223,0.355-0.54,0.63-0.95,0.823c-0.41,0.194-0.877,0.291-1.401,0.291
		c-0.898,0-1.575-0.24-2.03-0.721c-0.456-0.481-0.684-1.173-0.684-2.075V9.305h2.085v4.464c0,0.552,0.098,0.965,0.294,1.241
		c0.196,0.275,0.508,0.413,0.937,0.413c0.583,0,1.005-0.194,1.265-0.585c0.26-0.389,0.39-1.035,0.39-1.938V9.305h2.085v7.643H48.191
		z"/>
	<path fill="#FFFFFF" d="M55.198,15.423c0.365,0,0.802-0.08,1.312-0.239v1.552c-0.52,0.232-1.158,0.349-1.914,0.349
		c-0.834,0-1.441-0.211-1.822-0.633c-0.38-0.421-0.571-1.054-0.571-1.896v-3.685h-0.998V9.989l1.148-0.697l0.602-1.613h1.333v1.627
		h2.14v1.565h-2.14v3.685c0,0.296,0.083,0.515,0.25,0.656S54.924,15.423,55.198,15.423z"/>
	<path fill="#FFFFFF" d="M63.469,16.948l-0.28-0.978H63.08c-0.223,0.355-0.54,0.63-0.95,0.823c-0.41,0.194-0.877,0.291-1.401,0.291
		c-0.898,0-1.575-0.24-2.03-0.721c-0.456-0.481-0.684-1.173-0.684-2.075V9.305h2.085v4.464c0,0.552,0.098,0.965,0.294,1.241
		c0.196,0.275,0.508,0.413,0.937,0.413c0.583,0,1.005-0.194,1.265-0.585c0.26-0.389,0.39-1.035,0.39-1.938V9.305h2.085v7.643H63.469
		z"/>
	<path fill="#FFFFFF" d="M71.522,9.162c0.283,0,0.517,0.021,0.704,0.062l-0.157,1.955c-0.168-0.046-0.374-0.068-0.615-0.068
		c-0.666,0-1.184,0.171-1.555,0.513s-0.557,0.82-0.557,1.436v3.89h-2.085V9.305h1.579l0.308,1.285h0.103
		c0.237-0.429,0.557-0.773,0.96-1.035C70.609,9.292,71.048,9.162,71.522,9.162z"/>
	<path fill="#FFFFFF" d="M77.073,17.084c-1.23,0-2.192-0.34-2.885-1.019s-1.039-1.641-1.039-2.885c0-1.28,0.32-2.271,0.96-2.97
		c0.64-0.7,1.525-1.05,2.656-1.05c1.08,0,1.921,0.308,2.522,0.923s0.902,1.465,0.902,2.55v1.012h-4.929
		c0.023,0.593,0.198,1.055,0.526,1.388s0.789,0.499,1.381,0.499c0.46,0,0.896-0.048,1.306-0.144s0.838-0.248,1.285-0.458v1.613
		c-0.365,0.183-0.754,0.317-1.169,0.407C78.176,17.04,77.67,17.084,77.073,17.084z M76.779,10.645c-0.442,0-0.789,0.141-1.039,0.42
		c-0.25,0.281-0.394,0.679-0.431,1.193h2.926c-0.009-0.515-0.144-0.912-0.403-1.193C77.572,10.786,77.221,10.645,76.779,10.645z"/>
	<path fill="#FFFFFF" d="M92.59,10.071c0,1.075-0.336,1.898-1.008,2.468c-0.673,0.569-1.628,0.854-2.868,0.854h-0.909v3.555h-2.119
		V6.954h3.192c1.213,0,2.134,0.261,2.766,0.783C92.274,8.258,92.59,9.037,92.59,10.071z M87.805,11.657h0.697
		c0.652,0,1.14-0.129,1.463-0.387c0.324-0.257,0.485-0.632,0.485-1.124c0-0.497-0.136-0.863-0.406-1.101
		c-0.271-0.237-0.696-0.355-1.275-0.355h-0.964V11.657z"/>
	<path fill="#FFFFFF" d="M98.578,9.162c0.283,0,0.518,0.021,0.704,0.062l-0.157,1.955c-0.168-0.046-0.373-0.068-0.615-0.068
		c-0.665,0-1.184,0.171-1.555,0.513c-0.372,0.342-0.558,0.82-0.558,1.436v3.89h-2.085V9.305h1.579l0.308,1.285h0.103
		c0.237-0.429,0.558-0.773,0.961-1.035C97.666,9.292,98.105,9.162,98.578,9.162z"/>
	<path fill="#FFFFFF" d="M107.615,13.113c0,1.244-0.328,2.217-0.984,2.919s-1.569,1.053-2.741,1.053
		c-0.733,0-1.381-0.16-1.941-0.482c-0.561-0.32-0.991-0.782-1.292-1.384s-0.451-1.304-0.451-2.105c0-1.249,0.326-2.22,0.978-2.912
		c0.652-0.692,1.568-1.039,2.748-1.039c0.734,0,1.381,0.159,1.941,0.479s0.991,0.777,1.292,1.374S107.615,12.311,107.615,13.113z
		 M102.331,13.113c0,0.757,0.124,1.328,0.373,1.716c0.248,0.388,0.652,0.581,1.213,0.581c0.557,0,0.956-0.192,1.2-0.577
		c0.243-0.386,0.365-0.959,0.365-1.72c0-0.757-0.123-1.324-0.369-1.702s-0.649-0.567-1.21-0.567c-0.556,0-0.957,0.188-1.203,0.563
		C102.454,11.784,102.331,12.352,102.331,13.113z"/>
	<path fill="#FFFFFF" d="M115.989,9.305v1.06l-1.196,0.308c0.219,0.342,0.328,0.725,0.328,1.148c0,0.82-0.286,1.459-0.857,1.918
		c-0.572,0.457-1.366,0.687-2.383,0.687l-0.376-0.021l-0.308-0.034c-0.214,0.164-0.321,0.347-0.321,0.547
		c0,0.301,0.383,0.451,1.148,0.451h1.299c0.839,0,1.478,0.18,1.918,0.54c0.439,0.36,0.659,0.889,0.659,1.586
		c0,0.894-0.372,1.586-1.117,2.078s-1.815,0.738-3.21,0.738c-1.066,0-1.881-0.186-2.443-0.557c-0.563-0.372-0.845-0.893-0.845-1.562
		c0-0.46,0.144-0.846,0.431-1.155s0.709-0.531,1.265-0.663c-0.214-0.091-0.4-0.24-0.561-0.447c-0.159-0.208-0.239-0.428-0.239-0.66
		c0-0.292,0.085-0.534,0.253-0.729c0.169-0.193,0.413-0.384,0.731-0.57c-0.4-0.173-0.719-0.451-0.953-0.834
		c-0.235-0.383-0.353-0.834-0.353-1.354c0-0.834,0.271-1.479,0.813-1.935c0.543-0.456,1.317-0.684,2.324-0.684
		c0.215,0,0.469,0.02,0.763,0.058c0.294,0.039,0.481,0.067,0.563,0.086H115.989z M110.09,18.028c0,0.287,0.138,0.513,0.414,0.677
		c0.275,0.164,0.662,0.246,1.158,0.246c0.748,0,1.333-0.103,1.757-0.308s0.636-0.485,0.636-0.841c0-0.287-0.125-0.485-0.376-0.595
		c-0.25-0.109-0.638-0.164-1.162-0.164h-1.08c-0.383,0-0.703,0.09-0.96,0.27C110.219,17.494,110.09,17.732,110.09,18.028z
		 M110.849,11.807c0,0.415,0.095,0.743,0.284,0.984c0.188,0.241,0.478,0.362,0.864,0.362c0.393,0,0.68-0.121,0.861-0.362
		c0.183-0.241,0.273-0.569,0.273-0.984c0-0.921-0.378-1.381-1.135-1.381C111.232,10.426,110.849,10.886,110.849,11.807z"/>
	<path fill="#FFFFFF" d="M121.513,9.162c0.283,0,0.518,0.021,0.704,0.062l-0.157,1.955c-0.168-0.046-0.373-0.068-0.615-0.068
		c-0.665,0-1.184,0.171-1.555,0.513c-0.372,0.342-0.558,0.82-0.558,1.436v3.89h-2.085V9.305h1.579l0.308,1.285h0.103
		c0.237-0.429,0.558-0.773,0.961-1.035C120.601,9.292,121.039,9.162,121.513,9.162z"/>
	<path fill="#FFFFFF" d="M128.458,16.948l-0.403-1.039H128c-0.351,0.442-0.712,0.748-1.083,0.92
		c-0.372,0.17-0.855,0.256-1.453,0.256c-0.733,0-1.312-0.21-1.732-0.629c-0.422-0.419-0.633-1.017-0.633-1.791
		c0-0.812,0.284-1.409,0.852-1.795c0.567-0.385,1.423-0.598,2.566-0.639l1.326-0.041v-0.335c0-0.774-0.396-1.162-1.189-1.162
		c-0.61,0-1.328,0.185-2.153,0.554l-0.69-1.408c0.88-0.46,1.855-0.69,2.926-0.69c1.025,0,1.812,0.224,2.358,0.67
		s0.82,1.126,0.82,2.037v5.093H128.458z M127.843,13.407l-0.807,0.027c-0.605,0.019-1.057,0.128-1.354,0.328
		c-0.296,0.2-0.444,0.506-0.444,0.916c0,0.588,0.338,0.882,1.012,0.882c0.483,0,0.869-0.139,1.159-0.417
		c0.289-0.278,0.434-0.647,0.434-1.107V13.407z"/>
	<path fill="#FFFFFF" d="M138.903,16.948h-2.085v-4.464c0-0.552-0.092-0.965-0.276-1.241c-0.185-0.275-0.476-0.413-0.872-0.413
		c-0.533,0-0.92,0.196-1.162,0.588c-0.241,0.392-0.362,1.037-0.362,1.935v3.596h-2.085V9.305h1.593l0.28,0.978h0.116
		c0.205-0.351,0.502-0.626,0.889-0.823c0.388-0.199,0.832-0.298,1.333-0.298c1.145,0,1.919,0.374,2.324,1.121h0.185
		c0.205-0.355,0.507-0.631,0.906-0.827c0.398-0.196,0.849-0.294,1.35-0.294c0.866,0,1.521,0.222,1.966,0.667
		c0.444,0.443,0.666,1.156,0.666,2.136v4.983h-2.092v-4.464c0-0.552-0.092-0.965-0.276-1.241c-0.185-0.275-0.476-0.413-0.872-0.413
		c-0.51,0-0.892,0.183-1.145,0.547s-0.38,0.943-0.38,1.736V16.948z"/>
</g>
<g>
	<path fill="#FFFFFF" d="M19.433,17.162l-0.57,0.645c-3.241,3.669-8.861,4.251-12.623,1.117c-3.613-3.01-4.236-8.226-1.657-11.983
		l1.07,0.945c0.248,0.219,0.64,0.088,0.706-0.237l1.194-5.892C7.619,1.434,7.309,1.16,6.995,1.265l-5.7,1.911
		c-0.314,0.105-0.396,0.511-0.148,0.73l1.165,1.029c-3.664,4.997-2.928,12.099,1.896,16.213c5.009,4.272,12.577,3.558,16.936-1.376
		l0.545-0.617c0.157-0.178,0.14-0.45-0.038-0.607l-1.611-1.423C19.861,16.967,19.59,16.984,19.433,17.162z M23.217,14.964
		l-2.077-0.693c-0.225-0.075-0.469,0.046-0.544,0.272l-0.21,0.63c-0.075,0.225,0.046,0.469,0.272,0.544l2.077,0.693
		c0.225,0.075,0.469-0.046,0.544-0.272l0.21-0.63C23.564,15.283,23.442,15.039,23.217,14.964z M23.503,10.543l-2.185,0.135
		c-0.237,0.015-0.417,0.219-0.403,0.456l0.041,0.663c0.015,0.237,0.219,0.417,0.456,0.403l2.185-0.135
		c0.237-0.015,0.417-0.219,0.403-0.456l-0.041-0.663C23.944,10.709,23.739,10.528,23.503,10.543z M22.111,6.337l-1.976,0.944
		c-0.214,0.102-0.305,0.359-0.203,0.573l0.286,0.599c0.102,0.214,0.359,0.305,0.573,0.203l1.976-0.944
		c0.214-0.102,0.305-0.359,0.203-0.573L22.684,6.54C22.582,6.325,22.325,6.235,22.111,6.337z M19.246,2.958l-1.478,1.615
		c-0.16,0.175-0.148,0.447,0.027,0.607l0.49,0.448c0.175,0.16,0.447,0.148,0.607-0.027l1.478-1.615
		c0.16-0.175,0.148-0.447-0.027-0.607l-0.49-0.448C19.678,2.771,19.406,2.783,19.246,2.958z M15.323,0.899L14.557,2.95
		c-0.083,0.222,0.03,0.47,0.253,0.553l0.622,0.232c0.222,0.083,0.47-0.03,0.553-0.253l0.765-2.051
		c0.083-0.222-0.03-0.47-0.253-0.553l-0.622-0.232C15.653,0.564,15.406,0.677,15.323,0.899z M10.914,0.459l0.059,2.189
		c0.006,0.237,0.204,0.425,0.441,0.418l0.664-0.018c0.237-0.006,0.425-0.204,0.418-0.441l-0.059-2.189
		C12.431,0.181,12.234-0.006,11.996,0l-0.664,0.018C11.095,0.024,10.908,0.222,10.914,0.459z"/>
</g>
</svg>
